<svg width="115" height="115" viewBox="0 0 115 115" fill="none" xmlns="http://www.w3.org/2000/svg">
<circle cx="57.5" cy="57.5" r="57.5" fill="url(#paint0_linear_1340_2311)"/>
<path d="M59.4853 38.7059C59.4379 38.7059 58.5087 38.7059 56.8585 38.895C55.4677 39.0544 54.2431 40.6138 53.068 42.1381C52.5388 42.8246 52.5077 43.6411 52.6753 44.2806C52.6995 44.3728 52.7298 44.4625 52.7656 44.5495M52.7656 44.5495C52.9786 45.0659 53.39 45.4893 53.9069 45.804C59.1189 48.9779 68.0683 45.789 68.9233 44.7854C69.3355 44.3014 69.2844 43.5067 69.0256 42.9799C66.8767 41.5097 64.8088 40.6825 63.5541 40.2861C62.8882 40.1513 62.1627 40.1513 60.6108 39.9707M52.7656 44.5495C50.3948 44.6715 48.1159 44.7985 46.2053 45.0104C44.0979 45.2441 42.4872 45.5711 40.8155 45.7346C35.026 45.7949 30.8338 46.0177 30.2269 43.1976C29.9415 41.8713 29.6134 39.4091 31.3752 36.7274C31.5658 36.4373 31.7489 36.1437 31.9257 35.8483M52.7656 44.5495C53.0096 44.5369 53.2546 44.5244 53.5002 44.5119M57.3395 37.8729C54.0976 34.9673 45.2066 27.4661 41.9024 26.2088C40.3611 25.6223 38.7665 26.3913 37.5568 27.0398C35.3284 28.2345 34.1185 32.1838 31.9257 35.8483M31.9257 35.8483C32.4568 35.3571 32.7676 35.0596 33.0189 34.8158C34.4526 33.3892 38.228 31.3821 40.2354 31.2607C40.7381 31.4147 41.348 31.6351 43.4619 33.1486C51.8773 39.1738 53.0253 39.4405 53.3823 39.4563M31.9257 35.8483C31.8597 35.9093 31.7904 35.9733 31.7173 36.0406M68.0378 39.5747C68.0457 38.7068 68.2455 36.358 68.7846 35.0311C70.4219 31.0011 78.0557 34.033 81.7213 36.2992C85.2719 38.4942 90.6524 37.7659 92.3793 39.642C93.27 40.6097 93.0063 42.6499 92.7791 44.3318C92.4056 47.0953 88.2038 47.4958 81.4938 48.5396C78.0597 48.687 75.7281 48.4987 74.1037 47.9886C73.1492 47.6667 71.9304 47.217 69.9565 46.3638M57.3394 47.1764C55.7396 47.1764 51.1724 47.6641 48.7724 49.54C46.1399 54.3428 43.2329 68.2789 39.7005 79.591C37.8336 83.2019 34.5608 89.0995 31.1888 95.1759M80.6048 80.5113C77.459 77.109 75.302 74.5251 73.9769 72.809C70.5563 65.5389 67.3895 55.4015 64.7519 50.3561C63.1063 49.0172 62.1909 48.5883 62.0942 48.5883C62.5643 49.8564 62.9604 50.6601 63.4083 51.8843C64.3412 54.7045 65.2219 57.794 69.0751 70.9636C71.0058 76.5495 73.9482 87.663 76.2242 84.8436C77.5177 83.2413 79.4785 81.3858 80.6048 80.5113ZM80.6048 80.5113C80.7714 80.6916 80.9408 80.8741 81.113 81.0588M80.6048 80.5113C80.8027 80.3577 80.9748 80.2344 81.113 80.148M57.3394 48.5883C55.999 50.2698 53.0216 55.0559 51.9235 62.6272C49.7611 77.5359 48.0983 84.9423 45.4715 90.2477C43.7792 93.6656 39.8315 95.6912 36.8867 97.6701C36.1989 97.9496 35.4935 98.0611 34.5397 97.9676C33.5859 97.8741 32.4052 97.5722 31.1886 97.2612M69.7959 41.4208C69.9862 40.9792 71.1875 39.2355 72.2394 38.3051C72.668 37.9261 74.2902 37.8256 77.4118 38.053C84.1941 39.9676 86.1722 40.0506 88.5678 40.0978C89.5299 40.1443 89.9769 40.2365 91.1048 40.5837M89.3995 46.5511C88.93 46.5378 86.7061 46.2045 84.2961 45.9384C80.2133 45.4716 77.0086 45.4198 73.6256 46.1352C72.9853 46.3346 72.7579 46.4573 72.1061 47.0664M32.0164 44.1819C33.6834 44.1766 38.388 43.7495 41.9229 42.7823C50.3924 40.6233 52.1924 40.084 52.7937 40.0074C53.1521 39.9813 53.6188 39.9813 54.0996 39.9813" stroke="white" stroke-width="2" stroke-linecap="round"/>
<defs>
<linearGradient id="paint0_linear_1340_2311" x1="57.5" y1="0" x2="57.5" y2="115" gradientUnits="userSpaceOnUse">
<stop stop-color="#920605"/>
<stop offset="1" stop-color="#09214C"/>
</linearGradient>
</defs>
</svg>
