<svg width="237" height="175" viewBox="0 0 237 175" fill="none" xmlns="http://www.w3.org/2000/svg">
<path d="M64.3306 4.13123C61.0153 4.13123 51.944 4.45499 38.8269 9.60317C34.6669 11.2359 32.8348 13.266 31.2929 15.0468C28.3165 18.4842 28.5658 27.5958 29.9965 34.4174C30.9822 39.117 36.3331 42.4807 42.7066 46.2194C46.901 48.6798 54.7547 47.8629 60.2397 47.0676C64.877 46.3952 70.3823 36.3756 73.6645 29.9332C74.9793 25.3549 75.2641 17.6334 73.0238 8.35893C72.347 6.76232 71.799 6.01407 69.6466 4.66538" stroke="#F7F1E2" stroke-width="2" stroke-linecap="round"/>
<path d="M51.7852 50.0903C51.7852 50.1239 51.7852 50.1575 51.7852 51.5418C51.7852 52.9261 51.7852 55.6601 51.8703 57.5416C51.9554 59.423 52.1257 60.3691 52.4501 63.6622" stroke="#F7F1E2" stroke-width="2" stroke-linecap="round"/>
<path d="M52.4496 66.9762C52.4496 67.011 52.4496 67.0457 44.8845 79.4674C37.3195 91.889 22.1894 116.696 14.7782 129.755C7.36702 142.814 8.13324 143.373 20.4877 144.429C32.8421 145.484 56.7615 147.019 69.7162 147.849C82.6708 148.679 83.9358 148.758 84.5426 148.183C85.1493 147.608 85.0593 146.377 81.0338 134.327C77.0083 122.278 69.05 99.4479 64.7038 87.2751C60.3577 75.1022 59.8648 74.2784 59.3034 73.4182C58.7419 72.5579 58.1268 71.6861 56.0868 69.9086" stroke="#F7F1E2" stroke-width="2" stroke-linecap="round"/>
<path d="M41.7111 153.124C41.7111 156.387 41.5336 163.496 41.224 165.457C41.0918 166.497 41.0102 167.628 37.6246 168.245C34.2389 168.862 27.5516 168.932 20.6616 169.003" stroke="#F7F1E2" stroke-width="2" stroke-linecap="round"/>
<path d="M60.1401 153.237C60.1401 153.309 60.1401 156.734 60.2163 162.328C60.2924 164.532 60.4447 165.449 63.3842 166.158C66.3237 166.867 72.0457 167.339 79.6453 168.022" stroke="#F7F1E2" stroke-width="2" stroke-linecap="round"/>
<path d="M67.8257 86.5583C67.96 86.5583 72.1792 86.719 81.2598 88.167C91.7758 91.8633 101.054 96.2868 107.24 99.7307C109.901 101.233 111.593 102.238 113.74 103.437" stroke="#F7F1E2" stroke-width="2" stroke-linecap="round"/>
<path d="M38.5796 88.1862C38.6515 88.1862 34.734 88.1862 26.9508 88.4949C19.5392 89.4213 14.2362 90.7518 11.3538 92.1317C10.0829 92.8173 9.20155 93.4733 7.30518 94.7377" stroke="#F7F1E2" stroke-width="2" stroke-linecap="round"/>
<path d="M26.2217 14.6691C26.4519 15.9676 26.9193 19.9273 26.8989 21.6353C26.8378 20.5638 27.008 18.3605 27.3056 18.0941C27.391 18.7511 27.343 21.0162 27.2936 23.35" stroke="#F7F1E2" stroke-width="2" stroke-linecap="round"/>
<path d="M24.1206 14.7708C20.4036 14.7923 11.2098 15.7355 7.45515 19.6065C4.50446 24.9232 2.3533 29.5296 1.66019 32.8814C1.36518 35.0316 1.18531 38.0942 1 41.2496" stroke="#F7F1E2" stroke-width="2" stroke-linecap="round"/>
<path d="M24.3356 20.3123C24.1965 20.3123 21.9533 20.3123 18.0785 20.7032C14.9916 21.0146 13.1239 23.6815 11.6327 25.6722C10.6967 27.6137 9.93749 31.6584 9.29071 39.7768C9.0708 44.8301 9.0708 51.779 9.0708 58.9385" stroke="#F7F1E2" stroke-width="2" stroke-linecap="round"/>
<path d="M28.8047 25.4503C28.6632 25.4503 26.5735 25.4503 23.1579 25.8143C19.8968 28.6333 18.8546 31.7458 18.2372 35.9527C17.8465 39.0311 17.2985 44.0255 16.7339 51.1079" stroke="#F7F1E2" stroke-width="2" stroke-linecap="round"/>
<path d="M76.7289 9.55632C76.5874 9.48437 75.7255 8.3717 74.5175 7.24741C74.0984 7.19874 74.0732 8.2096 74.4967 9.76938C74.9202 11.3292 75.7932 13.4072 76.6926 15.5483" stroke="#F7F1E2" stroke-width="2" stroke-linecap="round"/>
<path d="M73.23 6.08984C75.9251 6.08984 84.8705 7.20503 90.1663 9.31919C94.5248 12.0345 97.5399 15.0219 99.8814 18.2028C101.019 19.8644 102.054 21.6223 103.716 25.5447" stroke="#F7F1E2" stroke-width="2" stroke-linecap="round"/>
<path d="M77.9028 13.0557C80.0668 13.0557 85.6684 13.9598 89.3561 16.912C92.0351 20.7484 95.2081 29.0773 97.8954 37.7948C98.8728 41.0611 99.0659 41.9772 99.2611 43.1718" stroke="#F7F1E2" stroke-width="2" stroke-linecap="round"/>
<path d="M77.0913 15.8136C77.1968 15.8136 79.1398 15.8352 82.3609 16.2468C84.413 17.3947 85.9756 21.4563 87.3724 29.5233C87.9479 34.3096 88.2524 40.5019 88.7552 48.0228" stroke="#F7F1E2" stroke-width="2" stroke-linecap="round"/>
<path d="M76.2842 5.9155C78.109 5.3687 85.5212 2.59175 91.4165 1.26314C95.1544 0.420749 98.4227 1.76763 100.224 2.98932C103.777 7.13018 107.773 15.0155 110.886 34.8146C111.381 39.1067 111.473 40.8154 111.566 42.5759" stroke="#F7F1E2" stroke-width="2" stroke-linecap="round"/>
<path d="M169.488 16.039C166.919 16.1037 160.427 17.1609 156.31 20.016C151.408 23.4144 148.184 32.6522 146.564 41.0947C144.831 50.1278 147.824 54.0156 150.373 57.1043C154.216 61.7608 166.175 62.4542 179.18 62.8942C185.756 63.1167 188.694 54.7215 191.076 48.5794C194.351 40.1321 191.685 29.0964 189.711 24.4235C186.371 19.9636 181.811 16.1555 175.821 13.1597C174.349 12.6113 173.127 12.3559 170.211 12.0928" stroke="#F7F1E2" stroke-width="2" stroke-linecap="round"/>
<path d="M170.209 65.9951V76.6746" stroke="#F7F1E2" stroke-width="2" stroke-linecap="round"/>
<path d="M169.957 76.9252C168.151 77.1242 155.81 83.9557 147.637 89.6823C143.633 92.4884 140.307 94.6613 139.641 95.6956C136.507 100.556 148.132 104.886 149.565 105.877C153.428 108.55 160.985 102.024 165.778 99.6924C169.276 97.9905 165.701 111.446 168.243 117.999C171.387 126.106 183.615 120.445 185.293 120.296C193.733 119.544 185.237 99.5407 185.619 98.1451C186.927 93.3658 195.233 102.096 197.66 102.019C205.753 101.764 207.917 95.5595 209.078 93.8538C211.293 90.6003 207.201 85.3309 204.48 82.0977C200.694 81.0829 194.356 79.7255 186.455 78.2793C182.504 77.7864 178.67 77.7828 174.582 77.2377" stroke="#F7F1E2" stroke-width="2" stroke-linecap="round"/>
<path d="M169.735 123.081C169.735 124.524 169.023 130.668 165.541 145.752C164.156 151.755 164.052 156.336 164.951 161.499C165.95 167.241 174.009 167.556 176.148 167.84C180.07 168.36 182.242 153.64 185.782 147.9C192.257 137.4 196.431 161.264 199.4 164.508C202.19 167.557 207.217 161.512 209.337 160.091C210.241 159.484 210.182 158.383 209.915 157.502C209.017 155.808 204.358 148.069 196.804 135.193C193.26 129.217 190.303 124.376 187.256 119.389" stroke="#F7F1E2" stroke-width="2" stroke-linecap="round"/>
<path d="M172.082 170.068C171.861 170.404 171.119 171.487 169.738 173.06C168.129 174.109 165.479 174.26 161.898 173.614C160.083 173.216 158.272 172.675 155.959 171.845" stroke="#F7F1E2" stroke-width="2" stroke-linecap="round"/>
<path d="M208.312 162.459C208.312 162.567 208.627 164.154 209.375 166.865C209.709 168.077 210.353 168.827 211.761 168.78C215.425 167.836 219.365 166.458 222.624 165.45C224.266 164.893 225.885 164.245 228.443 163.415" stroke="#F7F1E2" stroke-width="2" stroke-linecap="round"/>
<path d="M141.255 104.356C141.166 104.356 135.689 104.356 126.849 104.497C123.441 104.638 122.221 104.92 120.98 105.26C119.738 105.6 118.512 105.989 116.99 106.511" stroke="#F7F1E2" stroke-width="2" stroke-linecap="round"/>
<path d="M209.141 93.8365C209.349 93.8365 215.361 93.8353 224.799 94.0943C229.315 94.8762 231.045 96.0227 232.664 97.339C233.566 98.0461 234.631 98.8327 236 99.9048" stroke="#F7F1E2" stroke-width="2" stroke-linecap="round"/>
<path d="M152.793 24.1023C152.835 24.1023 158.478 24.1492 171.963 24.3066C179.826 24.3984 189.759 24.5899 195.181 24.7254C200.604 24.861 201.215 24.954 202.569 25.002C203.923 25.0499 206.001 25.0499 208.142 25.0499" stroke="#F7F1E2" stroke-width="2" stroke-linecap="round"/>
<path d="M189.334 21.4421C188.941 20.3373 184.259 12.2712 180.762 7.49835C178.75 4.75144 174.706 3.87772 170.273 3.60154C166.906 3.39178 163.568 6.82919 160.282 10.5337C159.292 11.8619 158.607 13.2177 157.703 15.7595C157.152 17.451 156.412 19.958 155.02 22.2815" stroke="#F7F1E2" stroke-width="2" stroke-linecap="round"/>
<path d="M162.626 18.3308C162.583 18.2876 161.809 17.6272 160.54 16.9542C160.082 16.711 159.761 17.5066 159.732 18.2262C159.669 19.789 160.217 21.4148 160.031 21.957C159.914 22.2966 159.124 20.4569 159.142 19.9017C159.169 19.1059 161.244 20.2271 162.394 20.6686C163.281 21.0092 163.344 18.3819 163.392 17.0899C163.455 15.4081 164.999 20.618 165.761 21.1577C166.493 21.677 166.396 16.1941 166.422 11.3092C166.444 7.12693 173.755 20.8906 174.513 21.3017C175.228 21.6895 175.125 15.7727 175.516 10.101C175.596 8.93193 179.037 13.7666 181.295 16.5557C181.664 17.0125 180.532 13.3251 178.934 10.5122C178.825 10.3211 180.239 12.9411 181.853 14.8049C184.65 18.0347 175.981 6.70372 173.778 5.88915C173.197 5.67451 172.509 5.90193 172.128 6.22047C171.355 6.8659 171.656 8.29784 172.062 9.63116C173.097 13.0343 175.315 14.2379 175.976 14.3574C176.306 14.4172 176.195 13.2246 175.979 12.4961C175.763 11.7676 175.336 11.2196 174.824 10.8021C173.824 9.98512 170.984 9.80837 167.676 10.1125C166.472 10.2231 166.4 11.1358 166.581 11.8053C166.959 13.2085 168.305 14.0647 169.23 14.2631C169.593 14.3411 169.694 13.574 169.678 12.9463C169.662 12.3186 169.514 11.6492 169.126 11.2407C168.34 10.4116 166.266 10.5186 164.257 10.6656C163.435 10.7257 163.108 11.3285 162.927 12.567C162.458 15.7787 162.97 18.9121 163.436 20.751C163.64 21.5579 163.921 22.0694 164.788 22.5959C169.854 25.6691 176.412 25.016 179.734 24.6509C180.847 24.5285 176.621 21.6937 174.34 20.3059C174.037 20.1211 177.388 20.4846 178.754 20.4545C180.12 20.4243 179.891 19.8599 179.458 19.3238C179.025 18.7877 178.395 18.2971 178.365 18.0949C178.282 17.5312 181 18.7514 182.83 19.4146C183.551 19.6757 179.517 16.7209 176.501 14.9886C175.871 14.6267 178.542 18.0612 179.521 20.0909C180.123 21.3372 172.94 18.237 171.009 17.8183C169.003 17.3832 170.841 20.563 171.292 21.3757C171.874 22.4227 168.218 21.4598 167.881 21.1045C166.005 19.13 173.503 21.6497 174.663 21.3523C175.176 21.2206 175.236 20.4599 175.217 19.8742C175.105 16.2985 170.734 10.44 169.664 7.02052C169.457 6.36003 169.144 5.70884 168.725 5.54595C168.306 5.38306 167.785 5.72928 167.517 6.22483C166.144 8.76294 171.536 13.1229 174.928 15.4564C177.804 16.8273 180.904 18.6395 183.056 20.422C183.868 21.1985 184.114 21.7153 184.662 23.5924" stroke="#F7F1E2" stroke-width="2" stroke-linecap="round"/>
</svg>
