<svg width="33" height="58" viewBox="0 0 33 58" fill="none" xmlns="http://www.w3.org/2000/svg">
<path d="M31.2525 1.54874C31.2525 1.88064 31.3147 3.09621 31.4075 5.33098C31.577 9.41346 31.3003 10.9054 31.1126 11.6748C30.7389 13.2068 26.8209 12.2646 25.7553 12.4407C24.8994 12.5822 24.0541 12.7392 23.2738 12.9796C22.5352 13.2073 21.8821 13.7511 21.4148 14.4079C20.9529 15.0571 21.097 15.9755 21.1466 21.8331C21.1567 23.0225 21.4009 23.0886 21.7242 23.1078C23.8635 23.2351 26.0829 22.9791 30.6459 23.0167C31.5354 23.024 31.5291 23.294 31.4847 23.4923C31.2989 24.3232 30.7147 25.0577 30.3016 25.8108C29.9126 26.5199 29.5849 27.8753 29.3219 28.9744C29.1363 29.7498 29.0028 30.5497 28.7754 31.4457C28.5466 32.3473 28.3245 33.3153 28.0231 33.9723C27.7016 34.6731 24.2193 34.0719 22.1972 34.146C21.9488 34.1552 21.6632 34.1854 21.4308 34.2374C21.1984 34.2895 21.029 34.3776 20.9414 34.7015C20.1183 37.7477 20.8725 41.9986 20.8033 43.0684C20.7762 43.4867 20.7227 43.8895 20.6657 46.0945C20.6141 48.0958 20.6252 51.8906 20.5223 53.8244C20.4194 55.7581 20.23 55.7162 20.0278 55.7153C19.1252 55.7114 18.1863 56.1672 16.523 56.3126C11.1292 56.7842 10.174 56.2351 9.87059 56.065C9.72429 55.983 9.71813 55.7478 9.69903 53.067C9.67993 50.3863 9.67993 45.2257 9.68766 42.4697C9.69705 39.1183 9.82037 37.7643 9.76345 35.0133C9.75337 34.5259 9.48242 34.4931 9.2656 34.4401C8.3788 34.2237 7.53948 34.0979 6.1848 34.0141C4.47356 33.9082 3.07002 33.9471 2.54703 33.8317C1.69734 33.6442 1.96562 31.8011 1.80964 30.8056C1.68191 29.9905 1.63802 29.2274 1.5618 27.9679C1.3844 25.0365 1.63647 24.4371 1.7244 24.058C2.07729 22.5366 6.19759 23.3774 7.40697 23.2592C7.95641 23.2055 8.83662 23.2245 9.29376 22.909C10.9737 21.7499 9.65706 17.7939 9.60367 13.9247C9.58708 12.7221 9.98953 11.9325 10.389 11.1254C10.7856 10.3241 11.5093 9.37873 12.0334 8.58734C12.4816 7.91053 13.0718 7.22333 13.8952 6.42151C14.6675 5.66932 15.4583 5.18957 16.2745 4.46287C16.9408 3.86963 17.7103 3.51934 18.5955 3.07087C19.359 2.68411 20.348 2.25109 21.3168 2.00604C22.209 1.78037 23.0642 1.73381 23.9893 1.60995C25.7069 1.37998 28.2549 1.56724 29.3284 1.65177C29.5719 1.6751 29.7544 1.70573 30.0081 1.72163C30.2619 1.73753 30.5813 1.73777 30.8254 1.75614" stroke="#701010" stroke-width="3" stroke-linecap="round"/>
</svg>
