<svg width="168" height="168" viewBox="0 0 168 168" fill="none" xmlns="http://www.w3.org/2000/svg">
<path d="M131.397 149.644C131.324 149.644 131.251 149.644 117.56 149.797C103.869 149.95 76.5632 150.255 61.8215 150.293C45.7289 150.334 42.9497 149.352 39.9253 148.053C32.2002 144.733 29.2248 139.245 28.5509 137.501C28.2119 136.623 28.3719 135.609 28.8656 135.152C31.4407 132.771 37.5398 135.463 41.5582 134.762C50.2462 133.245 33.4823 114.837 31.9364 111.617C31.2967 110.284 30.3224 109.912 29.4753 110.007C25.5713 110.448 22.5596 115.367 17.4183 119.803C7.41663 128.433 3.3742 130.552 1.4032 132.489C-1.17074 135.018 9.36949 134.069 11.4669 135.12C15.9189 137.35 14.3608 146.584 19.8455 153.665C25.8426 161.406 33.4349 163.441 42.4242 165.814C44.6879 166.411 46.9945 166.558 57.4957 166.756C67.9968 166.954 86.6614 167.028 96.9271 166.991C110.992 166.939 115.627 166.054 120.227 165.573C122.296 165.357 124.155 164.645 125.798 163.679C127.199 162.396 127.852 160.059 127.98 157.18C128.109 155.899 128.365 154.98 128.63 154.034" stroke="#F7F1E2" stroke-width="2" stroke-linecap="round"/>
<path d="M19.7388 91.0191C19.7388 90.9487 19.7388 89.6737 20.0111 86.9183C20.343 83.5611 27.8741 69.089 38.9303 47.6587C48.7884 28.551 55.6635 17.7063 62.6975 8.98781C67.701 2.78607 76.0996 1.29048 83.5297 1.00624C88.0251 0.83426 91.9677 4.25661 95.422 6.6792C96.9745 7.76802 98.1093 9.42383 100.24 10.3214C107.493 13.3764 110.946 8.54775 113.153 8.25648C114.365 8.09666 115.777 8.04772 116.532 12.6855C117.287 17.3234 117.346 26.684 116.57 31.3327C115.794 35.9814 114.181 35.6344 112.149 35.2882C100.815 33.3564 90.8276 30.0717 88.8533 28.9168C87.9419 28.3837 87.6646 27.33 87.9256 26.4805C88.5154 24.5607 91.0282 23.0425 92.0691 21.1902C92.8793 19.7484 89.2176 18.4538 86.9238 17.3832C84.9664 16.4695 81.9466 16.517 78.5371 16.7587C75.9921 16.939 74.3027 18.477 72.7554 19.8479C71.0109 21.3934 67.5598 28.4267 59.6206 44.4979C47.435 69.1649 39.0264 84.5061 37.5694 85.805C36.0573 87.1531 34.5733 88.9191 33.1358 90.7438C32.3136 91.4111 31.3032 91.553 29.8549 91.6213C28.4066 91.6896 26.5511 91.6799 22.7233 90.6772" stroke="#F7F1E2" stroke-width="2" stroke-linecap="round"/>
<path d="M112.073 51.9727C112.073 53.1965 112.53 56.5713 117.779 67.2937C122.424 76.7813 131.685 94.1894 136.679 104.075C144.922 120.388 145.239 130.26 145.738 135.271C145.916 137.055 145.928 139.58 145.339 140.913C144.405 143.028 141.403 142.935 140.481 144.23C136.851 149.33 149.084 158.685 151.87 163.282C152.821 164.851 153.878 164.105 154.99 162.464C160.19 154.793 163.091 149.151 166.033 144.927C166.623 144.081 167.233 143.265 166.912 142.591C166.074 140.832 162.131 140.664 158.879 139.81C156.481 139.18 156.244 132.303 155.805 122.2C155.369 112.196 151.156 100.315 146.017 87.0257C138.386 67.2872 133.44 62.6922 130.634 58.3115C129.254 56.1563 127.963 54.1004 126.644 52.422C125.787 51.7265 124.549 51.3479 122.279 51.1469C120.008 50.9458 116.742 50.9336 113.377 50.9211" stroke="#F7F1E2" stroke-width="2" stroke-linecap="round"/>
</svg>
