<svg width="1280" height="246" viewBox="0 0 1280 246" fill="none" xmlns="http://www.w3.org/2000/svg">
<path d="M2 126.133C2.50643 126.133 17.2783 126.648 86.5123 139.262C141.661 149.309 235.731 175.027 325.936 188.771C416.141 202.514 499.191 205.618 607.823 205.145C716.454 204.673 848.15 200.53 951.183 190.426C1054.22 180.321 1124.6 164.379 1171.57 152.533C1218.54 140.688 1239.97 133.422 1253.6 128.912C1267.22 124.402 1272.4 122.868 1278.43 120.593" stroke="#F7F1E2" stroke-width="4" stroke-linecap="round"/>
<path d="M11.2427 137.841C11.6396 137.841 20.6474 143.314 33.6948 150.395C37.939 152.001 37.3573 149.575 36.1645 146.717C34.9717 143.859 33.1855 140.643 31.3452 137.33" stroke="#F7F1E2" stroke-width="4" stroke-linecap="round"/>
<path d="M40.7676 142.195C41.3014 142.722 60.8072 157.803 89.1304 178.731C97.9385 185.239 96.5939 181.82 93.0288 176.109C89.4636 170.399 84.0115 162.096 85.0216 160.93C86.0317 159.764 93.6693 165.987 97.1703 167.152C100.924 168.4 96.8195 155.122 96.0202 149.578C93.7875 134.091 118.278 162.674 135.075 171.366C137.414 172.576 135.009 165.221 136.166 165.009C145.639 163.275 153.881 179.116 160.798 182.619C163.424 183.949 159.216 172.456 162.796 170.442C167.885 167.578 180.516 182.342 186.19 185.859C191.864 189.376 190.429 186.659 188.773 183.982C187.117 181.305 185.283 178.751 185.269 177.905C185.255 177.059 187.116 177.999 189.567 179.594C192.018 181.189 195.002 183.411 198.076 185.7" stroke="#F7F1E2" stroke-width="4" stroke-linecap="round"/>
<path d="M131.595 154.891C131.595 154.826 131.595 154.76 133.357 157.077C135.119 159.393 138.644 164.093 141.549 167.548C144.454 171.003 146.632 173.069 149.734 176.289" stroke="#F7F1E2" stroke-width="4" stroke-linecap="round"/>
<path d="M107.241 155.641C107.241 155.836 107.241 156.032 107.493 156.986C107.745 157.94 108.25 159.647 109.506 161.844C110.763 164.041 112.757 166.677 116.892 171.226" stroke="#F7F1E2" stroke-width="4" stroke-linecap="round"/>
<path d="M61.3608 142.502C61.5593 142.502 61.7578 142.502 63.1364 142.652C64.515 142.801 67.0677 143.1 70.5852 144.326C74.1028 145.551 78.5078 147.695 83.0464 149.903" stroke="#F7F1E2" stroke-width="4" stroke-linecap="round"/>
<path d="M169.463 159.545C188.662 172.143 203.498 183.237 208.367 187.017C209.026 187.528 203.041 179.805 205.075 180.847C233.74 195.535 241.504 205.187 245.956 206.985C247.987 207.806 240.096 193.744 238.625 186.621C237.74 182.333 256.287 201.553 261.986 205.652C267.685 209.752 265.013 204.508 265.016 202.132C265.02 198.911 273.867 203.266 278.319 205C281.734 206.329 276.759 196.315 277.587 194.671C283.733 182.459 312.635 216.158 338.888 237.039C347.319 243.744 346.743 241.383 342.305 234.04C337.867 226.696 329.822 214.143 328.799 210.553C327.776 206.963 334.019 212.715 336.684 214.627C337.955 215.539 334.294 207.995 332.536 203.373C333.59 203.026 338.598 206.737 341.34 207.583C344.083 208.43 344.409 206.3 346.964 202.45" stroke="#F7F1E2" stroke-width="4" stroke-linecap="round"/>
<path d="M351.001 204.277C354.918 204.277 366.268 205.343 401.062 225.963C405.421 228.546 401.208 220.881 401.877 219.02C406.758 205.442 422.799 219.057 435.014 224.586C437.905 225.895 439.883 226.821 440.955 226.357C442.027 225.893 442.093 224.094 443.883 223.789C449.193 222.884 455.218 227.414 458.302 227.898C462.549 228.563 455.711 218.571 455.187 216.292C452.277 203.618 485.894 226.119 506.506 233.071C510.113 234.287 509.572 231.224 508.323 228.231C507.075 225.238 505.272 221.899 505.633 220.928C506.66 218.163 518.591 228.43 529.415 235.409C532.876 236.962 532.209 234.477 530.679 231.666C529.148 228.854 526.774 225.791 524.327 222.635" stroke="#F7F1E2" stroke-width="4" stroke-linecap="round"/>
<path d="M418.851 192.181C419.161 192.311 421.492 193.716 425.608 196.5C427.551 197.946 429.2 199.46 430.932 200.868C432.663 202.276 434.426 203.533 438.02 206.58" stroke="#F7F1E2" stroke-width="4" stroke-linecap="round"/>
<path d="M424.36 206.41C424.643 206.621 424.926 206.833 427.669 209.302C430.412 211.771 435.606 216.491 442.057 221.715" stroke="#F7F1E2" stroke-width="4" stroke-linecap="round"/>
<path d="M385.15 210.826C385.15 210.891 385.15 210.956 388.259 214.202C391.367 217.448 397.583 223.873 401.773 228.005C405.963 232.136 407.939 233.78 410.548 236.06" stroke="#F7F1E2" stroke-width="4" stroke-linecap="round"/>
<path d="M369.846 208.515C369.846 208.704 369.846 208.893 370.916 211.546C371.986 214.199 374.125 219.311 376.33 224.578" stroke="#F7F1E2" stroke-width="4" stroke-linecap="round"/>
<path d="M344.379 196.965C344.411 197.063 344.443 197.162 345.617 198.475C346.791 199.788 349.107 202.311 351.01 204.289C352.913 206.266 354.335 207.622 358.944 212.284" stroke="#F7F1E2" stroke-width="4" stroke-linecap="round"/>
<path d="M317.516 190.729C317.516 190.79 317.516 190.851 317.517 191.796C317.518 192.741 317.52 194.57 319.597 197.802C321.674 201.034 325.826 205.615 333.173 213.149" stroke="#F7F1E2" stroke-width="4" stroke-linecap="round"/>
<path d="M496.966 209.115C500.004 209.115 511.778 210.033 542.005 219.824C548.875 222.05 551.738 224.873 552.638 224.964C553.538 225.056 552.16 222.924 550.329 220.719C548.498 218.514 546.256 216.302 552.049 219.386C557.843 222.471 571.74 230.919 577.851 233.292C583.962 235.664 581.865 231.704 582.412 230.069C583.629 226.426 592.691 231.516 595.358 231.477C596.926 231.454 590.755 225.56 590.237 223.748C587.234 213.238 613.54 231.928 617.358 231.901C618.297 230.929 617.209 228.012 615.842 225.544C614.475 223.075 612.862 221.143 611.2 219.153" stroke="#F7F1E2" stroke-width="4" stroke-linecap="round"/>
<path d="M532.878 222.417C533.008 222.417 533.138 222.417 536.668 223.924C540.198 225.431 547.124 228.444 556.513 231.937" stroke="#F7F1E2" stroke-width="4" stroke-linecap="round"/>
<path d="M215.606 141.214C234.081 135.545 271.316 123.863 274.091 124.445C276.541 124.96 263.813 136.539 257.624 146.052C255.966 148.6 274.538 142.653 280.291 141.727C283.728 141.174 282.203 147.459 285.681 148.254C288.156 148.821 282.491 153.499 281.187 154.886C273.822 162.723 307.36 145.828 308.527 147.089C309.951 148.628 302.667 152.821 301.35 155.071C300.034 157.322 302.246 157.716 304.977 157.485C307.709 157.255 310.891 156.39 310.822 157.656C310.752 158.922 307.335 162.347 307.262 163.851C307.096 167.246 330.183 157.391 351.741 149.627C356.075 148.066 344.167 161.292 343.943 163.821C343.564 168.089 358.136 163.253 366.725 161.365C368.532 160.968 365.294 164.13 364.512 165.62C363.537 167.479 372.976 165.794 380.753 164.271C384.364 163.563 378.44 172.885 376.874 175.712C375.657 177.91 394.256 170.197 412.477 162.563C417.886 160.297 416.315 163.47 412.628 167.881C408.941 172.293 403.393 178.403 402.388 181.439C401.169 185.123 418.169 180.432 431.484 175.989C434.203 175.082 430.401 181.4 433.943 182.508C439.551 184.26 453.57 176.929 460.089 175.536C466.608 174.142 465.374 175.968 464.01 177.689C462.647 179.41 461.191 180.971 461.577 181.484C463.163 183.588 478.184 176.305 495.258 170.261C500.608 168.368 499.701 170.303 496.734 173.051C493.768 175.798 488.891 179.668 488.086 181.335C481.599 194.764 517.26 178.023 554.461 164.385C561.991 161.625 560.834 162.966 558.446 165.185C556.058 167.404 552.472 170.451 551.513 172.121C550.554 173.79 552.331 173.991 554.288 173.916C558.348 173.761 565.086 171.796 567.709 173.689C570.793 175.916 556.986 184.709 554.159 188.47C546.61 198.511 588.567 179.149 600.341 177.396C604.762 176.738 610.378 173.883 609.448 175.933C608.519 177.983 600.694 184.285 598.831 186.641C590.434 197.267 626.501 174.436 629.943 174.95C630.506 176.199 628.665 179.456 626.668 182.311C624.671 185.167 622.575 187.524 620.429 190.961" stroke="#F7F1E2" stroke-width="4" stroke-linecap="round"/>
<path d="M7.15723 111.046C7.28954 111.046 25.5825 109.091 52.7532 107.164C61.6762 106.531 60.8141 109.257 59.0236 111.493C57.2331 113.73 54.564 116.073 56.1615 115.788C57.759 115.503 63.7039 112.519 72.5803 110.494" stroke="#F7F1E2" stroke-width="4" stroke-linecap="round"/>
<path d="M90.0283 108.694C90.5393 108.64 94.1697 106.917 98.9554 105.758C102.349 104.936 97.6767 114.55 98.27 117.405C98.6784 119.37 105.75 115.774 108.429 115.712C111.108 115.651 110.828 117.545 112.357 118.119C116.918 119.831 124.875 115.302 131.276 113.814C134.702 113.017 132.597 120.717 135.096 122.119C138.218 123.871 146.886 118.902 150.642 118.691C154.231 118.49 150.982 125.618 153.516 127.097C157.009 129.136 167.011 122.734 171.217 122.136C175.423 121.539 174.047 124.114 171.94 126.925C169.833 129.735 167.036 132.704 164.929 135.117C162.822 137.53 161.49 139.297 167.59 137C173.691 134.703 187.264 128.287 193.824 126.173C200.384 124.06 199.52 126.444 197.427 130.318C195.335 134.191 192.041 139.483 191.436 142.157C190.773 145.092 207.891 139.714 226.005 133.594C231.329 131.795 229.476 135.009 226.971 137.941C224.466 140.873 221.54 144.028 221.646 145.389C221.752 146.75 224.98 146.222 228.306 145.678" stroke="#F7F1E2" stroke-width="4" stroke-linecap="round"/>
<path d="M229.75 158.871C229.885 158.871 230.02 158.871 231.055 158.633C232.091 158.396 234.023 157.922 239.123 156.009C244.224 154.096 252.434 150.758 263.948 145.875" stroke="#F7F1E2" stroke-width="4" stroke-linecap="round"/>
<path d="M286.373 155.061C286.781 155.061 287.19 155.061 288.868 154.987C290.546 154.913 293.482 154.764 296.442 154.375C299.402 153.986 302.297 153.361 308.038 152.717" stroke="#F7F1E2" stroke-width="4" stroke-linecap="round"/>
<path d="M628.532 216.434C628.39 216.569 639.717 222.757 656.762 231.177C662.223 233.875 661.951 231.777 659.073 227.455C656.195 223.133 650.909 216.242 650.282 212.857C647.268 196.574 711.357 229.37 720.789 230.888C722.732 231.201 729.653 234.66 731.553 233.821C733.452 232.982 730.102 227.837 729.797 225.302C729.391 221.929 750.101 229.003 770.221 234.872C775.284 236.349 770.766 229.26 770.217 226.842C769.449 223.464 784.036 229.688 793.42 233.418C795.108 234.089 790.061 226.688 786.645 221.89C785.52 220.308 800.279 224.706 814.445 228.583C818.469 229.684 816.66 225.445 814.182 222.017C811.704 218.59 808.763 215.187 819.117 219.666C829.471 224.145 853.21 236.609 864.666 241.545C876.123 246.48 874.579 243.509 869.962 236.781C865.344 230.052 857.702 219.656 855.448 214.771C853.73 211.046 873.71 218.108 893.498 226.257C899.394 228.686 897.739 225.28 895.732 222.542C893.726 219.804 891.639 217.233 892.47 216.223C895.407 212.656 919.705 224.235 947.38 234.766C956.193 238.119 955.192 235.158 950.756 228.889C946.32 222.621 938.686 212.554 935.815 207.332C933.232 202.633 952.948 209.845 974.274 217.634C979.558 219.564 975.012 209.238 975.08 205.899C975.19 200.522 998.294 213.057 1016.86 221.778C1022.55 224.446 1021.69 221.003 1019.92 217.735C1018.14 214.468 1015.73 210.829 1016.49 209.202C1018.56 204.81 1042.36 215.025 1067.81 223.267C1076.05 225.938 1075.79 222.026 1071.76 215.078C1067.74 208.13 1060.22 197.367 1064.69 197.025C1069.16 196.683 1085.85 207.088 1091.41 207.799C1096.97 208.51 1090.9 199.211 1088.94 194.211C1086.98 189.211 1089.32 188.792 1096.27 190.623C1103.21 192.453 1114.69 196.545 1119.55 196.521C1124.71 196.495 1114.35 181.225 1107.76 171.542C1105.33 167.967 1131.55 176.355 1153.15 184.311C1158.92 186.437 1155.02 181.944 1154.04 179.658C1152.78 176.704 1168.77 180.326 1182.43 182.126C1186.02 182.598 1178.91 170.356 1177.25 165.751C1175.6 161.145 1178.62 161.527 1184.59 163.468C1211.26 172.141 1218.72 174.848 1222.16 174.257C1225.64 173.66 1213.9 163.122 1206.93 154.568C1204.69 151.816 1206.82 151.106 1211.87 152.663C1216.92 154.219 1225.29 157.762 1229 158.543C1232.71 159.324 1231.52 157.236 1230.23 155.248C1228.95 153.26 1227.62 151.434 1228.05 150.617C1229.3 148.232 1239.62 153.67 1250.11 158.065C1253.8 159.612 1254.91 157.668 1255.14 155.207C1255.68 149.305 1254.31 143.861 1255.4 141.241C1256.68 138.154 1264.04 143.243 1267.48 145.456C1269.13 146.519 1261.71 141.307 1259.56 139.185C1261.06 139.334 1264.86 141.393 1268.85 143.857C1270.78 144.936 1272.49 145.667 1277.63 147.385" stroke="#F7F1E2" stroke-width="4" stroke-linecap="round"/>
<path d="M634.392 184.018C636.513 184.068 647.834 182.401 682.903 170.354C689.033 168.248 689.05 171.16 688.152 173.825C687.255 176.489 685.644 179.51 686.232 181.227C690.195 192.785 712.818 174.138 722.401 175.774C729.21 176.936 734.412 172.002 737.004 172.922C740.261 174.076 736.41 180.684 737.78 182.309C742.404 187.794 755.194 173.617 764.965 170.506C769.193 169.159 769.064 176.487 774.342 177.617C793.624 181.747 807.805 165.823 810 166.563C813.217 167.647 806.441 175.797 802.639 182.05C801.006 184.736 800.266 186.601 805.981 182.568C824.599 169.428 838.438 157.323 841.134 157.211C845.019 157.049 840.772 168.921 839.491 177.996C838.915 182.078 839.012 185.161 845.048 182.363C851.083 179.565 863.189 170.809 869.705 167.531C876.22 164.253 876.778 166.718 876.782 169.804C876.786 172.889 876.219 176.521 879.014 175.609C889.569 172.163 899.707 159.656 906.262 158.66C909.253 158.205 904.308 170.741 903.694 175.12C903.08 179.499 905.092 178.635 909.407 175.923C913.722 173.212 920.281 168.679 923.541 167.289C926.802 165.898 926.565 167.787 925.707 170.456C924.849 173.125 923.378 176.517 929.337 172.059C935.296 167.6 948.729 155.189 955.277 150.3C961.824 145.411 961.079 148.421 959.355 152.86C957.631 157.299 954.951 163.075 959.121 161.352C963.291 159.629 974.393 150.232 979.992 146.534C985.592 142.836 985.353 145.122 983.714 149.938C982.075 154.754 979.044 162.031 978.55 165.166C978.16 167.637 997.469 153.963 1020.11 137.366C1027.31 132.091 1027.26 135.315 1024.89 141.138C1022.51 146.96 1018.18 155.823 1017.72 159.623C1017.26 163.371 1037.26 148.86 1056.33 133.061C1062.17 128.221 1061.79 131.826 1060.06 136.354C1058.34 140.883 1055.69 146.736 1055.49 149.067C1055.29 151.365 1072.29 138.683 1090.71 124.651C1096.58 120.182 1096.49 122.611 1094.37 127.513C1092.24 132.415 1088.36 140.104 1087.61 143.189C1087.1 145.309 1102.61 132.885 1118.26 119.25C1122.98 115.138 1122.21 117.976 1120.11 122.149C1118.01 126.322 1114.87 132.063 1119.65 130.509C1124.44 128.955 1137.24 119.93 1143.6 116.837C1149.97 113.743 1149.5 116.854 1147.88 121.316C1146.26 125.778 1143.49 131.498 1143.93 133.665C1144.74 137.718 1163.9 121.731 1181.99 106.107C1187.79 101.092 1187.86 103.321 1185.76 108.948C1183.66 114.575 1179.68 123.872 1179.44 127.442C1179.2 130.957 1198.02 112.848 1215.34 94.0612C1220.82 88.1197 1221.12 90.9489 1218.24 99.0539C1215.37 107.159 1209.71 120.831 1208.89 126.445C1208.26 130.704 1225 118.249 1236.15 109.668C1238.32 107.995 1235.52 116.179 1239.13 114.241C1242.75 112.303 1253.4 101.124 1258.87 96.5256C1264.33 91.9271 1264.28 94.248 1263.77 96.8081C1263.27 99.3681 1262.3 102.097 1262.84 102.879C1263.38 103.661 1265.45 102.413 1268.28 99.4886C1271.11 96.5642 1274.62 92.0009 1280 90.8819" stroke="#F7F1E2" stroke-width="4" stroke-linecap="round"/>
<path d="M1117.42 147.444C1117.42 147.383 1117.42 147.322 1117.54 146.08C1117.67 144.838 1117.92 142.417 1118.66 140.504C1119.41 138.591 1120.64 137.261 1122.65 135.553" stroke="#F7F1E2" stroke-width="4" stroke-linecap="round"/>
<path d="M1079.02 158.648C1079.08 158.648 1079.15 158.648 1080.07 158.123C1080.99 157.597 1082.78 156.546 1084.55 155.256C1086.32 153.966 1088.02 152.47 1090.57 150.564" stroke="#F7F1E2" stroke-width="4" stroke-linecap="round"/>
<path d="M1105.72 140.385L1108.84 138.494" stroke="#F7F1E2" stroke-width="4" stroke-linecap="round"/>
<path d="M1158.73 131.752C1158.85 131.752 1158.98 131.752 1160.14 131.323C1161.31 130.895 1163.51 130.038 1165.68 129.329C1167.85 128.62 1169.92 128.085 1174.64 126.444" stroke="#F7F1E2" stroke-width="4" stroke-linecap="round"/>
<path d="M1198.46 107.116C1198.53 107.116 1198.6 107.116 1199.12 106.267C1199.64 105.417 1200.61 103.718 1203.16 100.341" stroke="#F7F1E2" stroke-width="4" stroke-linecap="round"/>
<path d="M1218.45 124.19C1218.53 124.009 1218.61 123.828 1219.32 122.817C1220.03 121.807 1221.38 119.972 1222.76 118.082" stroke="#F7F1E2" stroke-width="4" stroke-linecap="round"/>
<path d="M1031.94 200.027C1032.2 200.027 1032.45 200.027 1034.63 200.295C1036.81 200.562 1040.9 201.096 1045.52 202.54C1050.14 203.983 1055.16 206.319 1060.33 208.726" stroke="#F7F1E2" stroke-width="4" stroke-linecap="round"/>
<path d="M738.475 176.079C738.475 176.056 738.475 176.034 737.835 154.227C737.195 132.42 735.915 88.8283 735.226 66.059C734.537 43.2897 734.477 42.6636 734.416 42.0185" stroke="white" stroke-width="2" stroke-linecap="round"/>
<path d="M914.046 172.077C914.046 172.055 914.046 172.032 913.406 150.225C912.766 128.418 911.487 84.8264 910.797 62.0572C910.108 39.2879 910.048 38.6618 909.987 38.0167" stroke="white" stroke-width="2" stroke-linecap="round"/>
<path d="M743.549 42.0185C743.549 41.979 743.549 41.9396 743.549 40.6164C743.549 39.2931 743.549 36.6873 743.549 35.0168C743.549 33.3463 743.549 32.6901 743.549 32.014" stroke="white" stroke-width="2" stroke-linecap="round"/>
<path d="M919.121 38.0167C919.121 37.9773 919.121 37.9378 919.121 36.6146C919.121 35.2914 919.121 32.6855 919.121 31.015C919.121 29.3445 919.121 28.6883 919.121 28.0122" stroke="white" stroke-width="2" stroke-linecap="round"/>
<path d="M740.51 39.7209C739.622 39.7405 736.911 40.3576 734.813 42.1333C734.315 42.5553 734.391 43.3752 734.482 44.0398C734.873 46.9299 738.306 48.5562 741.244 49.6273C742.884 50.2254 746.402 50.0338 750.422 49.77C751.934 49.6707 752.299 48.9785 752.497 48.0036C752.972 45.664 752.459 43.523 751.841 42.2986C749.781 40.4869 747.83 39.8349 746.482 39.5751C745.817 39.4211 745.192 39.2221 744.548 39.0172" stroke="white" stroke-width="2" stroke-linecap="round"/>
<path d="M916.081 35.7191C915.194 35.7387 912.482 36.3557 910.385 38.1315C909.886 38.5534 909.963 39.3734 910.053 40.038C910.444 42.928 913.878 44.5544 916.815 45.6254C918.455 46.2235 921.973 46.0319 925.993 45.7681C927.505 45.6689 927.871 44.9767 928.068 44.0017C928.543 41.6622 928.03 39.5212 927.413 38.2968C925.352 36.485 923.401 35.8331 922.053 35.5732C921.388 35.4192 920.763 35.2203 920.119 35.0153" stroke="white" stroke-width="2" stroke-linecap="round"/>
<path d="M752.683 50.022C752.683 50.5016 752.834 58.5393 753.341 72.6194C753.568 78.915 754.254 83.4606 754.523 92.5705C754.792 101.68 754.757 115.21 754.535 124.123C754.313 133.036 753.904 136.922 753.551 144.659C753.197 152.396 752.909 163.866 752.758 176.079" stroke="white" stroke-width="2" stroke-linecap="round"/>
<path d="M928.254 46.0203C928.254 46.4998 928.406 54.5376 928.913 68.6176C929.139 74.9132 929.825 79.4588 930.094 88.5688C930.363 97.6787 930.328 111.209 930.106 120.122C929.884 129.035 929.476 132.92 929.122 140.657C928.768 148.394 928.481 159.865 928.329 172.077" stroke="white" stroke-width="2" stroke-linecap="round"/>
<path d="M746.594 50.022C746.594 52.212 747.231 59.9966 748.234 69.3511C750.73 92.6209 749.895 96.0884 751.746 98.3583C752.573 99.3719 754.538 99.0527 755.853 98.7193C758.868 97.9548 758.87 94.2966 758.724 89.0184C757.481 85.2312 756.266 82.4528 755.514 80.5011C755.117 79.241 754.69 77.4333 753.981 74.235" stroke="white" stroke-width="2" stroke-linecap="round"/>
<path d="M922.166 46.0203C922.166 48.2102 922.802 55.9949 923.806 65.3493C926.301 88.6191 925.467 92.0866 927.318 94.3565C928.145 95.3701 930.109 95.0509 931.425 94.7175C934.44 93.9531 934.442 90.2948 934.296 85.0166C933.053 81.2295 931.838 78.4511 931.086 76.4994C930.689 75.2392 930.261 73.4315 929.553 70.2332" stroke="white" stroke-width="2" stroke-linecap="round"/>
<path d="M743.549 30.0131C742.677 29.626 740.15 27.8722 737.585 24.0309C735.255 20.5419 736.898 15.5075 738.94 11.1019C739.47 9.82225 739.868 8.55469 740.117 7.58045C740.366 6.60621 740.455 5.96369 740.546 5.00183" stroke="white" stroke-width="2" stroke-linecap="round"/>
<path d="M919.121 26.0113C918.248 25.6242 915.721 23.8705 913.156 20.0292C910.826 16.5401 912.469 11.5057 914.511 7.10013C915.041 5.82048 915.439 4.55292 915.688 3.57868C915.938 2.60444 916.026 1.96192 916.118 1.00006" stroke="white" stroke-width="2" stroke-linecap="round"/>
<path d="M744.677 32.014C745.443 31.6297 747.703 29.7704 748.401 27.1509C749.506 23.0043 746.282 18.8684 743.475 14.6716C742.629 12.9758 742.133 11.3255 741.798 9.30464C741.682 8.19182 741.677 6.90178 741.52 5.00183" stroke="white" stroke-width="2" stroke-linecap="round"/>
<path d="M920.249 28.0122C921.014 27.628 923.275 25.7687 923.972 23.1491C925.077 19.0026 921.853 14.8666 919.047 10.6698C918.2 8.97407 917.704 7.32374 917.369 5.30287C917.253 4.19005 917.249 2.90001 917.091 1.00006" stroke="white" stroke-width="2" stroke-linecap="round"/>
</svg>
