<svg width="1280" height="610" viewBox="0 0 1280 610" fill="none" xmlns="http://www.w3.org/2000/svg">
<path d="M352 328.643C347.795 328.643 335.09 328.114 320.87 328.488C303.793 328.937 287.504 338.262 272.064 342.621C262.035 345.453 254.998 346.147 246.128 347.014C224.262 349.15 211.753 343.685 203.71 341.515C197.706 339.894 191.621 336.288 186.052 332.834C183.188 331.08 180.833 328.759 179.221 325.957C178.507 324.573 178.002 323.264 177.45 320.568" stroke="#F7F1E2" stroke-width="2" stroke-linecap="round"/>
<path d="M348.401 293.243C343.318 293.243 330.068 292.929 322.639 291.943C316.158 291.083 291.259 291.123 270.489 289.951C258.949 289.3 222.79 286.963 205.31 290.225C203.769 290.512 203.405 292.75 203.316 294.021C202.93 299.557 212.634 301.221 221.313 302.653C224.898 302.883 230.23 303.001 236.589 303.119C242.949 303.237 250.174 303.351 259.58 303.816" stroke="#F7F1E2" stroke-width="2" stroke-linecap="round"/>
<path d="M261.871 303.388C260.773 304.792 255.24 309.706 249.284 312.537C241.689 316.147 230.842 315.62 215.498 316.098C195.384 316.335 181.509 317.399 179.821 319.534C179.175 320.727 178.956 322.142 178.611 324.332" stroke="#F7F1E2" stroke-width="2" stroke-linecap="round"/>
<path d="M179.023 213.897C178.207 214.214 174.317 216.465 171.235 219.449C168.206 222.382 168.605 226.995 168.103 231.06C167.397 236.778 170.444 240.637 173.49 244.315C176.529 247.984 181.696 249.405 185.66 250.674C188.269 251.508 191.936 251.486 195.753 251.167C202.115 250.635 206.599 242.552 208.148 237.095C211.028 226.95 207.591 222.633 205.104 216.355C204.543 214.939 203.958 214.38 203.342 213.879C197.018 212.545 186.765 212.879 182.942 214.257C181.994 214.632 181.121 214.993 179.068 215.653" stroke="#F7F1E2" stroke-width="2" stroke-linecap="round"/>
<path d="M249.826 185.5C246.477 185.5 236.578 186.612 231.399 189.794C226.819 192.609 228.034 201.846 228.076 208.788C228.09 210.998 229.658 212.245 231.992 213.841C240.268 219.499 253.595 219.392 260.167 218.545C261.84 218.329 262.613 216.174 263.431 214.526C267.211 206.91 264.355 193.648 261.454 190.496C258.39 188.807 255.763 188.051 253.013 187.867C251.212 187.805 248.588 187.805 245.884 187.805" stroke="#F7F1E2" stroke-width="2" stroke-linecap="round"/>
<path d="M236.535 197.084C236.535 197.15 236.552 197.995 236.9 200.329C237.231 201.853 237.876 204.067 238.277 205.645C238.678 207.223 238.816 208.099 239.107 209.718" stroke="#F7F1E2" stroke-width="2" stroke-linecap="round"/>
<path d="M239.107 203.335C239.107 203.276 239.183 202.711 239.508 201.672C240.172 200.713 240.915 199.965 241.488 199.364C241.748 199.04 241.946 198.679 242.374 198.075" stroke="#F7F1E2" stroke-width="2" stroke-linecap="round"/>
<path d="M238.89 204.107C238.976 204.107 239.763 204.107 241.176 204.308C242.415 204.912 243.645 205.826 244.788 206.722C245.291 207.119 245.634 207.397 246.118 207.814" stroke="#F7F1E2" stroke-width="2" stroke-linecap="round"/>
<path d="M248.318 201.918C249.074 203.372 250.822 206.623 251.176 206.317C251.654 201.501 252.377 200.11 253.008 199.476C253.349 199.226 253.733 199.122 254.47 199.015" stroke="#F7F1E2" stroke-width="2" stroke-linecap="round"/>
<path d="M256.352 207.194V207.238" stroke="#F7F1E2" stroke-width="2" stroke-linecap="round"/>
<path d="M179.558 228.368C179.558 228.337 179.584 230.105 179.798 233.752C179.984 235.615 180.329 237.503 180.568 238.694C180.806 239.885 180.927 240.32 181.052 240.769" stroke="#F7F1E2" stroke-width="2" stroke-linecap="round"/>
<path d="M181.049 234.401C181.049 234.342 181.182 233.877 181.602 232.945C182.331 231.9 183.137 231.096 183.804 230.569C184.119 230.283 184.386 229.959 184.661 229.626" stroke="#F7F1E2" stroke-width="2" stroke-linecap="round"/>
<path d="M181.023 234.323C181.478 234.42 184.043 235.931 186.189 237.467C186.59 237.712 186.96 237.886 187.346 238.072C187.732 238.258 188.123 238.45 189.078 238.959" stroke="#F7F1E2" stroke-width="2" stroke-linecap="round"/>
<path d="M191.511 231.722C191.533 232.577 191.866 235.089 192.992 237.557C193.127 237.853 193.309 235.843 193.429 234.001C193.79 232.848 194.615 232.069 195.71 231.439C196.228 231.181 196.668 231.05 197.122 230.915" stroke="#F7F1E2" stroke-width="2" stroke-linecap="round"/>
<path d="M199.57 236.729H199.524" stroke="#F7F1E2" stroke-width="2" stroke-linecap="round"/>
<path d="M195.235 418.5V401.045H197.348V409.705H197.553L205.394 401.045H208.155L200.826 408.92L208.155 418.5H205.598L199.53 410.386L197.348 412.841V418.5H195.235ZM211.055 419.216L209.76 418.33L218.896 404.795L220.191 405.682L211.055 419.216ZM214.975 418.773C213.794 418.773 212.757 418.491 211.865 417.929C210.978 417.366 210.285 416.58 209.785 415.568C209.291 414.557 209.044 413.375 209.044 412.023C209.044 410.659 209.291 409.469 209.785 408.452C210.285 407.435 210.978 406.645 211.865 406.082C212.757 405.52 213.794 405.239 214.975 405.239C216.157 405.239 217.191 405.52 218.078 406.082C218.97 406.645 219.663 407.435 220.157 408.452C220.657 409.469 220.907 410.659 220.907 412.023C220.907 413.375 220.657 414.557 220.157 415.568C219.663 416.58 218.97 417.366 218.078 417.929C217.191 418.491 216.157 418.773 214.975 418.773ZM214.975 416.966C215.873 416.966 216.612 416.736 217.191 416.276C217.771 415.815 218.2 415.21 218.478 414.46C218.757 413.71 218.896 412.898 218.896 412.023C218.896 411.148 218.757 410.332 218.478 409.577C218.2 408.821 217.771 408.21 217.191 407.744C216.612 407.278 215.873 407.045 214.975 407.045C214.078 407.045 213.339 407.278 212.76 407.744C212.18 408.21 211.751 408.821 211.473 409.577C211.194 410.332 211.055 411.148 211.055 412.023C211.055 412.898 211.194 413.71 211.473 414.46C211.751 415.21 212.18 415.815 212.76 416.276C213.339 416.736 214.078 416.966 214.975 416.966ZM224.25 418.5V401.045H226.262V407.489H226.432C226.58 407.261 226.784 406.972 227.046 406.619C227.313 406.261 227.694 405.943 228.188 405.665C228.688 405.381 229.364 405.239 230.216 405.239C231.319 405.239 232.29 405.514 233.131 406.065C233.972 406.616 234.628 407.398 235.1 408.409C235.571 409.42 235.807 410.614 235.807 411.989C235.807 413.375 235.571 414.577 235.1 415.594C234.628 416.605 233.975 417.389 233.14 417.946C232.304 418.497 231.341 418.773 230.25 418.773C229.409 418.773 228.736 418.634 228.23 418.355C227.725 418.071 227.336 417.75 227.063 417.392C226.79 417.028 226.58 416.727 226.432 416.489H226.194V418.5H224.25ZM226.228 411.955C226.228 412.943 226.373 413.815 226.662 414.571C226.952 415.321 227.375 415.909 227.932 416.335C228.489 416.756 229.171 416.966 229.978 416.966C230.819 416.966 231.52 416.744 232.083 416.301C232.651 415.852 233.077 415.25 233.361 414.494C233.651 413.733 233.796 412.886 233.796 411.955C233.796 411.034 233.654 410.205 233.37 409.466C233.091 408.722 232.668 408.134 232.1 407.702C231.537 407.264 230.83 407.045 229.978 407.045C229.159 407.045 228.472 407.253 227.915 407.668C227.358 408.077 226.938 408.651 226.654 409.389C226.37 410.122 226.228 410.977 226.228 411.955ZM251.123 418.773C249.861 418.773 248.773 418.494 247.858 417.938C246.949 417.375 246.248 416.591 245.753 415.585C245.265 414.574 245.02 413.398 245.02 412.057C245.02 410.716 245.265 409.534 245.753 408.511C246.248 407.483 246.935 406.682 247.816 406.108C248.702 405.528 249.736 405.239 250.918 405.239C251.6 405.239 252.273 405.352 252.938 405.58C253.603 405.807 254.208 406.176 254.753 406.688C255.299 407.193 255.733 407.864 256.057 408.699C256.381 409.534 256.543 410.562 256.543 411.784V412.636H246.452V410.898H254.498C254.498 410.159 254.35 409.5 254.054 408.92C253.765 408.341 253.35 407.884 252.81 407.548C252.276 407.213 251.645 407.045 250.918 407.045C250.117 407.045 249.424 407.244 248.838 407.642C248.259 408.034 247.813 408.545 247.5 409.176C247.188 409.807 247.032 410.483 247.032 411.205V412.364C247.032 413.352 247.202 414.19 247.543 414.878C247.89 415.56 248.37 416.08 248.983 416.438C249.597 416.79 250.31 416.966 251.123 416.966C251.651 416.966 252.128 416.892 252.554 416.744C252.986 416.591 253.358 416.364 253.671 416.062C253.983 415.756 254.225 415.375 254.395 414.92L256.338 415.466C256.134 416.125 255.79 416.705 255.307 417.205C254.824 417.699 254.228 418.085 253.517 418.364C252.807 418.636 252.009 418.773 251.123 418.773ZM261.614 410.625V418.5H259.603V405.409H261.546V407.455H261.716C262.023 406.79 262.489 406.256 263.114 405.852C263.739 405.443 264.546 405.239 265.534 405.239C266.421 405.239 267.196 405.42 267.861 405.784C268.526 406.142 269.043 406.688 269.412 407.42C269.782 408.148 269.966 409.068 269.966 410.182V418.5H267.955V410.318C267.955 409.29 267.688 408.489 267.154 407.915C266.62 407.335 265.887 407.045 264.955 407.045C264.313 407.045 263.739 407.185 263.233 407.463C262.733 407.741 262.338 408.148 262.049 408.682C261.759 409.216 261.614 409.864 261.614 410.625ZM289.664 408.341L287.858 408.852C287.744 408.551 287.576 408.259 287.355 407.974C287.139 407.685 286.843 407.446 286.468 407.259C286.093 407.071 285.613 406.977 285.028 406.977C284.227 406.977 283.559 407.162 283.025 407.531C282.497 407.895 282.233 408.358 282.233 408.92C282.233 409.42 282.414 409.815 282.778 410.105C283.142 410.395 283.71 410.636 284.483 410.83L286.426 411.307C287.596 411.591 288.468 412.026 289.042 412.611C289.616 413.19 289.903 413.937 289.903 414.852C289.903 415.602 289.687 416.273 289.255 416.864C288.829 417.455 288.233 417.92 287.466 418.261C286.699 418.602 285.806 418.773 284.789 418.773C283.454 418.773 282.349 418.483 281.474 417.903C280.599 417.324 280.045 416.477 279.812 415.364L281.721 414.886C281.903 415.591 282.247 416.119 282.752 416.472C283.264 416.824 283.931 417 284.755 417C285.693 417 286.437 416.801 286.988 416.403C287.545 416 287.824 415.517 287.824 414.955C287.824 414.5 287.664 414.119 287.346 413.812C287.028 413.5 286.539 413.267 285.88 413.114L283.699 412.602C282.5 412.318 281.619 411.878 281.056 411.281C280.5 410.679 280.221 409.926 280.221 409.023C280.221 408.284 280.429 407.631 280.843 407.062C281.264 406.494 281.835 406.048 282.556 405.724C283.284 405.401 284.108 405.239 285.028 405.239C286.324 405.239 287.341 405.523 288.079 406.091C288.824 406.659 289.352 407.409 289.664 408.341ZM294.942 401.045V418.5H292.931V401.045H294.942ZM300.024 419.216L298.728 418.33L307.865 404.795L309.16 405.682L300.024 419.216ZM303.944 418.773C302.762 418.773 301.725 418.491 300.833 417.929C299.947 417.366 299.254 416.58 298.754 415.568C298.26 414.557 298.012 413.375 298.012 412.023C298.012 410.659 298.26 409.469 298.754 408.452C299.254 407.435 299.947 406.645 300.833 406.082C301.725 405.52 302.762 405.239 303.944 405.239C305.126 405.239 306.16 405.52 307.047 406.082C307.939 406.645 308.632 407.435 309.126 408.452C309.626 409.469 309.876 410.659 309.876 412.023C309.876 413.375 309.626 414.557 309.126 415.568C308.632 416.58 307.939 417.366 307.047 417.929C306.16 418.491 305.126 418.773 303.944 418.773ZM303.944 416.966C304.842 416.966 305.581 416.736 306.16 416.276C306.74 415.815 307.169 415.21 307.447 414.46C307.725 413.71 307.865 412.898 307.865 412.023C307.865 411.148 307.725 410.332 307.447 409.577C307.169 408.821 306.74 408.21 306.16 407.744C305.581 407.278 304.842 407.045 303.944 407.045C303.047 407.045 302.308 407.278 301.728 407.744C301.149 408.21 300.72 408.821 300.441 409.577C300.163 410.332 300.024 411.148 300.024 412.023C300.024 412.898 300.163 413.71 300.441 414.46C300.72 415.21 301.149 415.815 301.728 416.276C302.308 416.736 303.047 416.966 303.944 416.966ZM312.946 405.409H314.958V419.455C314.958 420.261 314.819 420.96 314.54 421.551C314.267 422.142 313.853 422.599 313.296 422.923C312.745 423.247 312.049 423.409 311.208 423.409C311.14 423.409 311.071 423.409 311.003 423.409C310.935 423.409 310.867 423.409 310.799 423.409V421.534C310.867 421.534 310.929 421.534 310.986 421.534C311.043 421.534 311.105 421.534 311.174 421.534C311.787 421.534 312.236 421.352 312.52 420.989C312.804 420.631 312.946 420.119 312.946 419.455V405.409ZM313.935 403.227C313.543 403.227 313.205 403.094 312.921 402.827C312.642 402.56 312.503 402.239 312.503 401.864C312.503 401.489 312.642 401.168 312.921 400.901C313.205 400.634 313.543 400.5 313.935 400.5C314.327 400.5 314.662 400.634 314.941 400.901C315.225 401.168 315.367 401.489 315.367 401.864C315.367 402.239 315.225 402.56 314.941 402.827C314.662 403.094 314.327 403.227 313.935 403.227ZM324.471 405.409V407.114H317.414V405.409H324.471ZM319.528 418.5V403.602C319.528 402.852 319.704 402.227 320.056 401.727C320.409 401.227 320.866 400.852 321.429 400.602C321.991 400.352 322.585 400.227 323.21 400.227C323.704 400.227 324.108 400.267 324.42 400.347C324.733 400.426 324.966 400.5 325.119 400.568L324.539 402.307C324.437 402.273 324.295 402.23 324.113 402.179C323.937 402.128 323.704 402.102 323.414 402.102C322.75 402.102 322.27 402.27 321.974 402.605C321.684 402.94 321.539 403.432 321.539 404.08V418.5H319.528ZM332.24 418.773C330.978 418.773 329.89 418.494 328.975 417.938C328.066 417.375 327.365 416.591 326.87 415.585C326.382 414.574 326.137 413.398 326.137 412.057C326.137 410.716 326.382 409.534 326.87 408.511C327.365 407.483 328.052 406.682 328.933 406.108C329.819 405.528 330.853 405.239 332.035 405.239C332.717 405.239 333.39 405.352 334.055 405.58C334.72 405.807 335.325 406.176 335.87 406.688C336.416 407.193 336.85 407.864 337.174 408.699C337.498 409.534 337.66 410.562 337.66 411.784V412.636H327.569V410.898H335.615C335.615 410.159 335.467 409.5 335.172 408.92C334.882 408.341 334.467 407.884 333.927 407.548C333.393 407.213 332.762 407.045 332.035 407.045C331.234 407.045 330.541 407.244 329.956 407.642C329.376 408.034 328.93 408.545 328.618 409.176C328.305 409.807 328.149 410.483 328.149 411.205V412.364C328.149 413.352 328.319 414.19 328.66 414.878C329.007 415.56 329.487 416.08 330.1 416.438C330.714 416.79 331.427 416.966 332.24 416.966C332.768 416.966 333.245 416.892 333.672 416.744C334.103 416.591 334.475 416.364 334.788 416.062C335.1 415.756 335.342 415.375 335.512 414.92L337.456 415.466C337.251 416.125 336.907 416.705 336.424 417.205C335.941 417.699 335.345 418.085 334.635 418.364C333.924 418.636 333.126 418.773 332.24 418.773Z" fill="#F7F1E2"/>
<path d="M613.148 224.424C613.184 225.497 614.15 231.352 615.545 236.209C616.096 238.13 617.591 239.504 619.186 240.412C623.843 243.063 632.154 240.536 635.079 238.606C638.764 236.175 634.173 230.915 632.775 227.727C632.421 226.918 631.941 226.163 631.314 225.634C630.687 225.105 629.886 224.846 627.055 224.712C624.224 224.578 619.389 224.578 614.191 224.355" stroke="#F7F1E2" stroke-width="2" stroke-linecap="round"/>
<path d="M626.215 223.551C626.215 222.233 627.145 216.731 629.972 210.918C632.574 205.568 639.532 197.595 645.091 193.268C652.301 187.656 659.027 186.839 663.698 184.581C667.419 182.783 671.507 183.44 673.407 183.059C677.035 182.331 679.753 188.495 682.892 193.491C688.675 202.694 689.512 210.396 690.363 221.106C691.757 238.641 695.065 249.984 694.721 252.478C694.574 253.544 693.688 254.014 692.835 254.424C687.297 257.084 673.117 252.707 664.677 250.136C658.202 248.164 649.278 248.94 645.375 247.003C643.291 245.563 640.703 243.95 637.574 242.404C635.944 241.673 634.228 241.049 632.286 240.2" stroke="#F7F1E2" stroke-width="2" stroke-linecap="round"/>
<path d="M617.738 223.108C613.524 218.308 601.546 205.365 595.098 201.166C588.971 197.177 575.323 198.08 566.523 197.176C564.605 196.979 562.179 196.053 560.602 196.094C559.026 196.134 558.414 196.92 558.099 197.785C557.479 199.487 557.031 202.896 555.893 208.657C554.401 216.21 557.301 226.211 562.197 238.989C572.745 266.521 576.577 267.955 578.103 269.13C584.661 274.179 603.363 259.145 609.911 254.657C613.032 251.512 615.806 248.037 618.041 244.613C618.578 243.801 619.188 243.012 620.174 241.906" stroke="#F7F1E2" stroke-width="2" stroke-linecap="round"/>
<path d="M619.556 241.496C619.556 241.557 614.171 250.227 605.121 265.62C598.736 276.479 596.954 286.976 595.537 302.555C594.599 312.86 594.862 328.152 594.598 337.25C594.334 346.348 593.954 348.818 594.017 349.742C594.16 351.83 602.862 340.782 608.552 333.269C609.646 331.826 609.938 329.737 610.591 329.131C611.245 328.526 611.92 329.264 612.439 330.073C614.939 333.973 619.376 341.303 622.374 345.438C623.384 346.83 625.296 347.709 626.851 347.783C632.373 348.045 628.787 328.392 628.378 309.81C628.011 293.178 625.879 279.716 626.246 268.504C627.704 257.325 628.806 250.347 628.982 247.986C629.087 246.897 629.225 246.031 629.367 244.436" stroke="#F7F1E2" stroke-width="2" stroke-linecap="round"/>
<path d="M628.936 283.044C628.936 284.217 629.285 288.485 632.45 295.244C633.905 298.351 637.339 302.56 644.32 310.005C651.3 317.45 662.108 327.79 668.317 333.951C674.526 340.112 675.809 341.78 676.578 342.126C683.034 345.028 673.441 322.345 673.635 320.094C674 315.856 682.809 326.107 686.808 328.046C690.188 329.685 696.158 330.47 701.368 331.193C702.995 331.419 702.619 330.43 701.791 329.123C695.965 319.925 688.747 306.605 683.304 299.389C672.995 285.724 664.391 278.899 657.238 268.93C655.469 265.841 653.704 261.643 651.807 256.588C651.069 254.524 650.789 253.474 650.349 251.13" stroke="#F7F1E2" stroke-width="2" stroke-linecap="round"/>
<path d="M533.157 403.545H535.679L541.611 418.034H541.816L547.748 403.545H550.27V421H548.293V407.739H548.123L542.668 421H540.759L535.304 407.739H535.134V421H533.157V403.545ZM559.554 421.273C558.372 421.273 557.335 420.991 556.443 420.429C555.556 419.866 554.863 419.08 554.363 418.068C553.869 417.057 553.622 415.875 553.622 414.523C553.622 413.159 553.869 411.969 554.363 410.952C554.863 409.935 555.556 409.145 556.443 408.582C557.335 408.02 558.372 407.739 559.554 407.739C560.735 407.739 561.77 408.02 562.656 408.582C563.548 409.145 564.241 409.935 564.735 410.952C565.235 411.969 565.485 413.159 565.485 414.523C565.485 415.875 565.235 417.057 564.735 418.068C564.241 419.08 563.548 419.866 562.656 420.429C561.77 420.991 560.735 421.273 559.554 421.273ZM559.554 419.466C560.451 419.466 561.19 419.236 561.77 418.776C562.349 418.315 562.778 417.71 563.056 416.96C563.335 416.21 563.474 415.398 563.474 414.523C563.474 413.648 563.335 412.832 563.056 412.077C562.778 411.321 562.349 410.71 561.77 410.244C561.19 409.778 560.451 409.545 559.554 409.545C558.656 409.545 557.917 409.778 557.338 410.244C556.758 410.71 556.329 411.321 556.051 412.077C555.772 412.832 555.633 413.648 555.633 414.523C555.633 415.398 555.772 416.21 556.051 416.96C556.329 417.71 556.758 418.315 557.338 418.776C557.917 419.236 558.656 419.466 559.554 419.466ZM573.499 421.273C572.408 421.273 571.445 420.997 570.61 420.446C569.775 419.889 569.121 419.105 568.65 418.094C568.178 417.077 567.942 415.875 567.942 414.489C567.942 413.114 568.178 411.92 568.65 410.909C569.121 409.898 569.777 409.116 570.618 408.565C571.459 408.014 572.431 407.739 573.533 407.739C574.385 407.739 575.059 407.881 575.553 408.165C576.053 408.443 576.434 408.761 576.695 409.119C576.962 409.472 577.169 409.761 577.317 409.989H577.488V403.545H579.499V421H577.556V418.989H577.317C577.169 419.227 576.959 419.528 576.686 419.892C576.414 420.25 576.025 420.571 575.519 420.855C575.013 421.134 574.34 421.273 573.499 421.273ZM573.772 419.466C574.578 419.466 575.26 419.256 575.817 418.835C576.374 418.409 576.797 417.821 577.087 417.071C577.377 416.315 577.522 415.443 577.522 414.455C577.522 413.477 577.38 412.622 577.096 411.889C576.811 411.151 576.391 410.577 575.834 410.168C575.277 409.753 574.59 409.545 573.772 409.545C572.919 409.545 572.209 409.764 571.641 410.202C571.078 410.634 570.655 411.222 570.371 411.966C570.093 412.705 569.953 413.534 569.953 414.455C569.953 415.386 570.096 416.233 570.38 416.994C570.669 417.75 571.096 418.352 571.658 418.801C572.226 419.244 572.931 419.466 573.772 419.466ZM589.155 407.909V409.614H582.371V407.909H589.155ZM584.348 404.773H586.36V417.25C586.36 417.818 586.442 418.244 586.607 418.528C586.777 418.807 586.993 418.994 587.255 419.091C587.522 419.182 587.803 419.227 588.098 419.227C588.32 419.227 588.502 419.216 588.644 419.193C588.786 419.165 588.9 419.142 588.985 419.125L589.394 420.932C589.257 420.983 589.067 421.034 588.823 421.085C588.578 421.142 588.269 421.17 587.894 421.17C587.326 421.17 586.769 421.048 586.223 420.804C585.684 420.56 585.235 420.188 584.877 419.688C584.525 419.188 584.348 418.557 584.348 417.795V404.773ZM596.033 421.307C595.203 421.307 594.451 421.151 593.775 420.838C593.098 420.52 592.561 420.062 592.164 419.466C591.766 418.864 591.567 418.136 591.567 417.284C591.567 416.534 591.715 415.926 592.01 415.46C592.306 414.989 592.701 414.619 593.195 414.352C593.689 414.085 594.235 413.886 594.831 413.756C595.434 413.619 596.039 413.511 596.647 413.432C597.442 413.33 598.087 413.253 598.581 413.202C599.081 413.145 599.445 413.051 599.672 412.92C599.905 412.79 600.022 412.562 600.022 412.239V412.17C600.022 411.33 599.792 410.676 599.331 410.21C598.877 409.744 598.186 409.511 597.26 409.511C596.3 409.511 595.547 409.722 595.002 410.142C594.456 410.562 594.073 411.011 593.851 411.489L591.942 410.807C592.283 410.011 592.738 409.392 593.306 408.949C593.88 408.5 594.505 408.187 595.181 408.011C595.863 407.83 596.533 407.739 597.192 407.739C597.613 407.739 598.096 407.79 598.641 407.892C599.192 407.989 599.723 408.19 600.235 408.497C600.752 408.804 601.181 409.267 601.522 409.886C601.863 410.506 602.033 411.335 602.033 412.375V421H600.022V419.227H599.919C599.783 419.511 599.556 419.815 599.238 420.139C598.919 420.463 598.496 420.739 597.968 420.966C597.439 421.193 596.794 421.307 596.033 421.307ZM596.34 419.5C597.135 419.5 597.806 419.344 598.351 419.031C598.902 418.719 599.317 418.315 599.596 417.821C599.88 417.327 600.022 416.807 600.022 416.261V414.42C599.936 414.523 599.749 414.616 599.459 414.702C599.175 414.781 598.846 414.852 598.471 414.915C598.101 414.972 597.74 415.023 597.388 415.068C597.042 415.108 596.76 415.142 596.544 415.17C596.022 415.239 595.533 415.349 595.078 415.503C594.63 415.651 594.266 415.875 593.988 416.176C593.715 416.472 593.578 416.875 593.578 417.386C593.578 418.085 593.837 418.614 594.354 418.972C594.877 419.324 595.539 419.5 596.34 419.5ZM610.988 426.182C610.017 426.182 609.181 426.057 608.483 425.807C607.784 425.562 607.201 425.239 606.735 424.835C606.275 424.438 605.909 424.011 605.636 423.557L607.238 422.432C607.42 422.67 607.65 422.943 607.929 423.25C608.207 423.562 608.588 423.832 609.071 424.06C609.559 424.293 610.199 424.409 610.988 424.409C612.045 424.409 612.917 424.153 613.605 423.642C614.292 423.131 614.636 422.33 614.636 421.239V418.58H614.466C614.318 418.818 614.108 419.114 613.835 419.466C613.568 419.812 613.181 420.122 612.676 420.395C612.176 420.662 611.5 420.795 610.647 420.795C609.591 420.795 608.642 420.545 607.801 420.045C606.966 419.545 606.304 418.818 605.815 417.864C605.332 416.909 605.091 415.75 605.091 414.386C605.091 413.045 605.326 411.878 605.798 410.884C606.27 409.884 606.926 409.111 607.767 408.565C608.608 408.014 609.579 407.739 610.681 407.739C611.534 407.739 612.21 407.881 612.71 408.165C613.216 408.443 613.602 408.761 613.869 409.119C614.142 409.472 614.352 409.761 614.5 409.989H614.704V407.909H616.647V421.375C616.647 422.5 616.392 423.415 615.88 424.119C615.375 424.83 614.693 425.349 613.835 425.679C612.983 426.014 612.034 426.182 610.988 426.182ZM610.92 418.989C611.727 418.989 612.409 418.804 612.966 418.435C613.522 418.065 613.946 417.534 614.235 416.841C614.525 416.148 614.67 415.318 614.67 414.352C614.67 413.409 614.528 412.577 614.244 411.855C613.96 411.134 613.539 410.568 612.983 410.159C612.426 409.75 611.738 409.545 610.92 409.545C610.068 409.545 609.358 409.761 608.789 410.193C608.227 410.625 607.804 411.205 607.52 411.932C607.241 412.659 607.102 413.466 607.102 414.352C607.102 415.261 607.244 416.065 607.528 416.764C607.818 417.457 608.244 418.003 608.806 418.401C609.375 418.793 610.079 418.989 610.92 418.989ZM632.022 421.273C630.931 421.273 629.968 420.997 629.133 420.446C628.298 419.889 627.645 419.105 627.173 418.094C626.701 417.077 626.466 415.875 626.466 414.489C626.466 413.114 626.701 411.92 627.173 410.909C627.645 409.898 628.301 409.116 629.142 408.565C629.983 408.014 630.954 407.739 632.056 407.739C632.909 407.739 633.582 407.881 634.076 408.165C634.576 408.443 634.957 408.761 635.218 409.119C635.485 409.472 635.693 409.761 635.841 409.989H636.011V403.545H638.022V421H636.079V418.989H635.841C635.693 419.227 635.483 419.528 635.21 419.892C634.937 420.25 634.548 420.571 634.042 420.855C633.537 421.134 632.863 421.273 632.022 421.273ZM632.295 419.466C633.102 419.466 633.784 419.256 634.341 418.835C634.897 418.409 635.321 417.821 635.61 417.071C635.9 416.315 636.045 415.443 636.045 414.455C636.045 413.477 635.903 412.622 635.619 411.889C635.335 411.151 634.914 410.577 634.358 410.168C633.801 409.753 633.113 409.545 632.295 409.545C631.443 409.545 630.733 409.764 630.164 410.202C629.602 410.634 629.179 411.222 628.895 411.966C628.616 412.705 628.477 413.534 628.477 414.455C628.477 415.386 628.619 416.233 628.903 416.994C629.193 417.75 629.619 418.352 630.181 418.801C630.75 419.244 631.454 419.466 632.295 419.466ZM641.985 421V407.909H643.997V421H641.985ZM643.008 405.727C642.616 405.727 642.278 405.594 641.994 405.327C641.716 405.06 641.576 404.739 641.576 404.364C641.576 403.989 641.716 403.668 641.994 403.401C642.278 403.134 642.616 403 643.008 403C643.4 403 643.735 403.134 644.014 403.401C644.298 403.668 644.44 403.989 644.44 404.364C644.44 404.739 644.298 405.06 644.014 405.327C643.735 405.594 643.4 405.727 643.008 405.727ZM649.692 413.125V421H647.681V407.909H649.624V409.955H649.794C650.101 409.29 650.567 408.756 651.192 408.352C651.817 407.943 652.624 407.739 653.613 407.739C654.499 407.739 655.275 407.92 655.939 408.284C656.604 408.642 657.121 409.188 657.49 409.92C657.86 410.648 658.044 411.568 658.044 412.682V421H656.033V412.818C656.033 411.79 655.766 410.989 655.232 410.415C654.698 409.835 653.965 409.545 653.033 409.545C652.391 409.545 651.817 409.685 651.311 409.963C650.811 410.241 650.417 410.648 650.127 411.182C649.837 411.716 649.692 412.364 649.692 413.125ZM677.743 410.841L675.936 411.352C675.822 411.051 675.654 410.759 675.433 410.474C675.217 410.185 674.922 409.946 674.547 409.759C674.172 409.571 673.691 409.477 673.106 409.477C672.305 409.477 671.637 409.662 671.103 410.031C670.575 410.395 670.311 410.858 670.311 411.42C670.311 411.92 670.493 412.315 670.856 412.605C671.22 412.895 671.788 413.136 672.561 413.33L674.504 413.807C675.674 414.091 676.547 414.526 677.12 415.111C677.694 415.69 677.981 416.437 677.981 417.352C677.981 418.102 677.765 418.773 677.333 419.364C676.907 419.955 676.311 420.42 675.544 420.761C674.777 421.102 673.885 421.273 672.868 421.273C671.532 421.273 670.427 420.983 669.552 420.403C668.677 419.824 668.123 418.977 667.89 417.864L669.799 417.386C669.981 418.091 670.325 418.619 670.831 418.972C671.342 419.324 672.01 419.5 672.833 419.5C673.771 419.5 674.515 419.301 675.066 418.903C675.623 418.5 675.902 418.017 675.902 417.455C675.902 417 675.743 416.619 675.424 416.312C675.106 416 674.618 415.767 673.958 415.614L671.777 415.102C670.578 414.818 669.697 414.378 669.135 413.781C668.578 413.179 668.299 412.426 668.299 411.523C668.299 410.784 668.507 410.131 668.922 409.562C669.342 408.994 669.913 408.548 670.635 408.224C671.362 407.901 672.186 407.739 673.106 407.739C674.402 407.739 675.419 408.023 676.157 408.591C676.902 409.159 677.43 409.909 677.743 410.841ZM683.02 403.545V421H681.009V403.545H683.02ZM688.102 421.716L686.806 420.83L695.943 407.295L697.238 408.182L688.102 421.716ZM692.022 421.273C690.841 421.273 689.804 420.991 688.912 420.429C688.025 419.866 687.332 419.08 686.832 418.068C686.338 417.057 686.091 415.875 686.091 414.523C686.091 413.159 686.338 411.969 686.832 410.952C687.332 409.935 688.025 409.145 688.912 408.582C689.804 408.02 690.841 407.739 692.022 407.739C693.204 407.739 694.238 408.02 695.125 408.582C696.017 409.145 696.71 409.935 697.204 410.952C697.704 411.969 697.954 413.159 697.954 414.523C697.954 415.875 697.704 417.057 697.204 418.068C696.71 419.08 696.017 419.866 695.125 420.429C694.238 420.991 693.204 421.273 692.022 421.273ZM692.022 419.466C692.92 419.466 693.659 419.236 694.238 418.776C694.818 418.315 695.247 417.71 695.525 416.96C695.804 416.21 695.943 415.398 695.943 414.523C695.943 413.648 695.804 412.832 695.525 412.077C695.247 411.321 694.818 410.71 694.238 410.244C693.659 409.778 692.92 409.545 692.022 409.545C691.125 409.545 690.386 409.778 689.806 410.244C689.227 410.71 688.798 411.321 688.52 412.077C688.241 412.832 688.102 413.648 688.102 414.523C688.102 415.398 688.241 416.21 688.52 416.96C688.798 417.71 689.227 418.315 689.806 418.776C690.386 419.236 691.125 419.466 692.022 419.466ZM701.025 407.909H703.036V421.955C703.036 422.761 702.897 423.46 702.618 424.051C702.346 424.642 701.931 425.099 701.374 425.423C700.823 425.747 700.127 425.909 699.286 425.909C699.218 425.909 699.15 425.909 699.081 425.909C699.013 425.909 698.945 425.909 698.877 425.909V424.034C698.945 424.034 699.007 424.034 699.064 424.034C699.121 424.034 699.184 424.034 699.252 424.034C699.865 424.034 700.314 423.852 700.598 423.489C700.882 423.131 701.025 422.619 701.025 421.955V407.909ZM702.013 405.727C701.621 405.727 701.283 405.594 700.999 405.327C700.721 405.06 700.581 404.739 700.581 404.364C700.581 403.989 700.721 403.668 700.999 403.401C701.283 403.134 701.621 403 702.013 403C702.405 403 702.74 403.134 703.019 403.401C703.303 403.668 703.445 403.989 703.445 404.364C703.445 404.739 703.303 405.06 703.019 405.327C702.74 405.594 702.405 405.727 702.013 405.727ZM712.549 407.909V409.614H705.493V407.909H712.549ZM707.606 421V406.102C707.606 405.352 707.782 404.727 708.135 404.227C708.487 403.727 708.944 403.352 709.507 403.102C710.069 402.852 710.663 402.727 711.288 402.727C711.782 402.727 712.186 402.767 712.498 402.847C712.811 402.926 713.044 403 713.197 403.068L712.618 404.807C712.515 404.773 712.373 404.73 712.191 404.679C712.015 404.628 711.782 404.602 711.493 404.602C710.828 404.602 710.348 404.77 710.052 405.105C709.762 405.44 709.618 405.932 709.618 406.58V421H707.606ZM720.318 421.273C719.056 421.273 717.968 420.994 717.054 420.438C716.145 419.875 715.443 419.091 714.949 418.085C714.46 417.074 714.216 415.898 714.216 414.557C714.216 413.216 714.46 412.034 714.949 411.011C715.443 409.983 716.13 409.182 717.011 408.608C717.897 408.028 718.931 407.739 720.113 407.739C720.795 407.739 721.468 407.852 722.133 408.08C722.798 408.307 723.403 408.676 723.949 409.188C724.494 409.693 724.929 410.364 725.252 411.199C725.576 412.034 725.738 413.062 725.738 414.284V415.136H715.647V413.398H723.693C723.693 412.659 723.545 412 723.25 411.42C722.96 410.841 722.545 410.384 722.005 410.048C721.471 409.713 720.841 409.545 720.113 409.545C719.312 409.545 718.619 409.744 718.034 410.142C717.454 410.534 717.008 411.045 716.696 411.676C716.383 412.307 716.227 412.983 716.227 413.705V414.864C716.227 415.852 716.397 416.69 716.738 417.378C717.085 418.06 717.565 418.58 718.179 418.938C718.792 419.29 719.505 419.466 720.318 419.466C720.846 419.466 721.324 419.392 721.75 419.244C722.181 419.091 722.554 418.864 722.866 418.562C723.179 418.256 723.42 417.875 723.591 417.42L725.534 417.966C725.329 418.625 724.985 419.205 724.502 419.705C724.02 420.199 723.423 420.585 722.713 420.864C722.002 421.136 721.204 421.273 720.318 421.273Z" fill="#F7F1E2"/>
<path d="M965.038 217.763C964.816 220.85 962.958 228.848 960.003 235.789C959.369 237.278 959.022 238.127 959.501 238.567C962.385 241.217 966.12 241.852 968.654 245.256C972.953 251.031 972.698 257.615 972.842 257.941C975.712 264.434 973.92 247.328 976.377 241.693C977.529 239.051 979.036 237.53 979.458 236.725C980.609 234.528 973.738 234.632 970.688 232.012C968.435 229.207 966.937 226.521 966.463 224.718C966.28 223.686 966.21 222.419 966.138 221.113" stroke="#F7F1E2" stroke-width="2" stroke-linecap="round"/>
<path d="M1010.2 258.768C1010.17 260.062 1009.47 263.975 1004.47 272.733C1003.1 275.149 1001.51 276.828 1001.2 277.856C1000.34 280.67 1005.61 283.032 1007.57 287.705C1011.59 297.253 1010.73 301.612 1010.74 301.052C1010.96 287.264 1012.12 283.454 1013.63 280.085C1014.88 277.27 1010.25 272.517 1008.91 267.491C1008.73 266.429 1008.62 265.45 1008.57 264.385C1008.51 263.319 1008.51 262.197 1008.51 261.04" stroke="#F7F1E2" stroke-width="2" stroke-linecap="round"/>
<path d="M1006.21 311.605C1005.1 311.057 997.87 305.201 992.017 299.191C986.499 293.525 983.648 281.034 982.947 268.628C982.589 262.276 987.905 255.29 996.625 245.862C1002.1 239.942 1011.91 235.174 1022.36 230.573C1030.27 227.087 1044.6 226.647 1060.84 226.025C1069.84 225.681 1074.11 227.516 1077.25 227.836C1081.45 228.266 1066.17 220.204 1060.91 218.156C1053.3 215.192 1036.93 215.449 1021.69 215.344C1012.68 217.263 1002.47 222.029 992.144 228.506C990.59 229.687 989.787 230.409 988.707 231.452" stroke="#F7F1E2" stroke-width="2" stroke-linecap="round"/>
<path d="M970.173 270.726C970.21 276.146 970.959 289.587 975.276 298.495C983.724 307.985 989.342 312.292 996.857 315.919C998.993 316.783 1000.94 317.382 1003 317.911" stroke="#F7F1E2" stroke-width="2" stroke-linecap="round"/>
<path d="M1076.77 228.598C1075.96 230.346 1073.85 234.76 1072.91 237.059C1072.19 238.828 1071.09 240.206 1071.16 240.901C1071.52 244.391 1077.52 239.632 1079.3 238.581C1079.68 238.357 1079.95 238.006 1080.34 237.975C1083.57 237.711 1086.8 241.658 1087.33 241.819C1089.51 242.483 1086.49 236.251 1086.15 234.563C1086.01 233.869 1086.33 233.455 1086.72 233.248C1089.24 231.898 1093.12 232.548 1094.16 232.346C1095.93 232.004 1090.32 229.468 1088.67 228.104C1087.24 226.916 1088.8 221.721 1089.26 216.593C1089.4 214.967 1088.85 215.299 1088.36 215.748C1085.65 218.268 1083.97 221.478 1082.59 221.634C1079.15 222.02 1076.02 218.724 1073.94 217.459C1073.05 216.917 1072.41 216.718 1072.64 217.75C1072.87 218.783 1073.96 221.089 1074.84 222.714C1075.71 224.339 1076.34 225.213 1077.59 226.983" stroke="#F7F1E2" stroke-width="2" stroke-linecap="round"/>
<path d="M1044.54 306.03C1047.98 312.058 1049.74 316.148 1051.1 322.555C1051.39 323.904 1051.35 324.79 1051.4 323.68C1051.83 314.868 1053.4 310.81 1055.01 308.399C1055.43 307.77 1056.03 307.232 1055.99 306.794C1055.75 304.214 1051.22 302.15 1049.43 298.39C1048.51 296.471 1048.69 292.819 1048.57 290.876C1048.36 298.942 1047.76 301.627 1046.63 304.959C1046.33 305.741 1046.07 306.347 1045.73 306.971" stroke="#F7F1E2" stroke-width="2" stroke-linecap="round"/>
<path d="M1008.9 345.175C1009.11 345.885 1009.97 347.809 1010.7 348.416C1010.94 348.608 1011.16 347.749 1010.71 347.497C1010.26 347.245 1009.2 347.417 1008.95 347.606C1008.53 347.928 1012.01 348.616 1014.89 349C1014.26 347.431 1013.19 345.735 1012.59 345.055C1012.22 344.965 1011.73 345.395 1010.77 346.195" stroke="#F7F1E2" stroke-width="2" stroke-linecap="round"/>
<path d="M1046.28 258.041C1046.28 259.465 1046.01 262.693 1045.86 263.425C1045.43 265.533 1050.08 261.527 1050.9 261.104C1053.34 259.849 1045.36 258.506 1044.47 258.269C1043.74 258.077 1047.6 260.754 1050.1 262.567C1050.37 261.261 1049.47 259.225 1048.75 258.09C1048.48 257.505 1048.4 256.898 1048.31 255.055" stroke="#F7F1E2" stroke-width="2" stroke-linecap="round"/>
<path d="M989.419 184C989.389 186.015 989.084 190.677 988.77 191.406C987.999 193.203 990.425 187.942 991.504 187.017C992.028 186.567 992.559 186.221 991.591 186.037C990.624 185.854 988.156 185.86 987.141 186.052C986.125 186.243 986.636 186.62 987.221 186.983C988.449 187.684 990.032 188.663 991.712 189.755C992.473 190.216 993.046 190.489 994.859 191.803" stroke="#F7F1E2" stroke-width="2" stroke-linecap="round"/>
<path d="M940.3 285.164C940.297 286.86 940.067 290.952 939.792 291.792C939.157 293.737 942.654 288.335 943.664 287.631C945.475 286.37 939.212 286.987 938.78 287.084C937.263 287.421 942.336 289.525 943.774 290.381C942.368 287.675 941.569 285.907 940.96 284.763C940.641 284.197 940.3 283.661 939.891 282.706" stroke="#F7F1E2" stroke-width="2" stroke-linecap="round"/>
<path d="M1077.98 320.575C1077.97 322.649 1077.71 327.489 1077.39 328.44C1076.7 330.441 1079.09 323.786 1080.15 322.056C1080.6 321.32 1076.92 321.723 1076.06 321.946C1073.15 322.693 1081.45 326.595 1081.73 326.499C1081.45 325.867 1080.34 324.052 1079.53 322.628C1078.71 321.204 1078.22 320.228 1077.08 318.303" stroke="#F7F1E2" stroke-width="2" stroke-linecap="round"/>
<path d="M901.586 420H896.2V402.545H901.825C903.518 402.545 904.967 402.895 906.171 403.594C907.376 404.287 908.299 405.284 908.941 406.585C909.583 407.881 909.904 409.432 909.904 411.239C909.904 413.057 909.58 414.622 908.933 415.935C908.285 417.241 907.342 418.247 906.103 418.952C904.864 419.651 903.359 420 901.586 420ZM898.313 418.125H901.45C902.893 418.125 904.089 417.847 905.038 417.29C905.987 416.733 906.694 415.94 907.16 414.912C907.626 413.884 907.859 412.659 907.859 411.239C907.859 409.83 907.629 408.616 907.168 407.599C906.708 406.577 906.021 405.793 905.106 405.247C904.191 404.696 903.052 404.42 901.688 404.42H898.313V418.125ZM921.427 414.648V406.909H923.438V420H921.427V417.784H921.29C920.984 418.449 920.506 419.014 919.859 419.48C919.211 419.94 918.393 420.17 917.404 420.17C916.586 420.17 915.859 419.991 915.222 419.634C914.586 419.27 914.086 418.724 913.722 417.997C913.359 417.264 913.177 416.341 913.177 415.227V406.909H915.188V415.091C915.188 416.045 915.455 416.807 915.989 417.375C916.529 417.943 917.217 418.227 918.052 418.227C918.552 418.227 919.06 418.099 919.577 417.844C920.1 417.588 920.538 417.196 920.89 416.668C921.248 416.139 921.427 415.466 921.427 414.648ZM935.884 412.125V420H933.872V402.545H935.884V408.955H936.054C936.361 408.278 936.821 407.741 937.435 407.344C938.054 406.94 938.878 406.739 939.906 406.739C940.798 406.739 941.58 406.918 942.25 407.276C942.92 407.628 943.44 408.17 943.81 408.903C944.185 409.631 944.372 410.557 944.372 411.682V420H942.361V411.818C942.361 410.778 942.091 409.974 941.551 409.406C941.017 408.832 940.276 408.545 939.327 408.545C938.668 408.545 938.077 408.685 937.554 408.963C937.037 409.241 936.628 409.648 936.327 410.182C936.031 410.716 935.884 411.364 935.884 412.125ZM951.904 420.307C951.075 420.307 950.322 420.151 949.646 419.838C948.969 419.52 948.433 419.062 948.035 418.466C947.637 417.864 947.438 417.136 947.438 416.284C947.438 415.534 947.586 414.926 947.881 414.46C948.177 413.989 948.572 413.619 949.066 413.352C949.56 413.085 950.106 412.886 950.702 412.756C951.305 412.619 951.91 412.511 952.518 412.432C953.313 412.33 953.958 412.253 954.452 412.202C954.952 412.145 955.316 412.051 955.543 411.92C955.776 411.79 955.893 411.562 955.893 411.239V411.17C955.893 410.33 955.663 409.676 955.202 409.21C954.748 408.744 954.058 408.511 953.131 408.511C952.171 408.511 951.418 408.722 950.873 409.142C950.327 409.562 949.944 410.011 949.722 410.489L947.813 409.807C948.154 409.011 948.609 408.392 949.177 407.949C949.751 407.5 950.376 407.187 951.052 407.011C951.734 406.83 952.404 406.739 953.063 406.739C953.484 406.739 953.967 406.79 954.512 406.892C955.063 406.989 955.594 407.19 956.106 407.497C956.623 407.804 957.052 408.267 957.393 408.886C957.734 409.506 957.904 410.335 957.904 411.375V420H955.893V418.227H955.79C955.654 418.511 955.427 418.815 955.109 419.139C954.79 419.463 954.367 419.739 953.839 419.966C953.31 420.193 952.665 420.307 951.904 420.307ZM952.211 418.5C953.006 418.5 953.677 418.344 954.222 418.031C954.773 417.719 955.188 417.315 955.467 416.821C955.751 416.327 955.893 415.807 955.893 415.261V413.42C955.808 413.523 955.62 413.616 955.33 413.702C955.046 413.781 954.717 413.852 954.342 413.915C953.972 413.972 953.612 414.023 953.259 414.068C952.913 414.108 952.631 414.142 952.415 414.17C951.893 414.239 951.404 414.349 950.95 414.503C950.501 414.651 950.137 414.875 949.859 415.176C949.586 415.472 949.45 415.875 949.45 416.386C949.45 417.085 949.708 417.614 950.225 417.972C950.748 418.324 951.41 418.5 952.211 418.5ZM961.575 420V406.909H963.518V408.886H963.655C963.893 408.239 964.325 407.713 964.95 407.31C965.575 406.906 966.28 406.705 967.064 406.705C967.212 406.705 967.396 406.707 967.618 406.713C967.839 406.719 968.007 406.727 968.121 406.739V408.784C968.053 408.767 967.896 408.741 967.652 408.707C967.413 408.668 967.161 408.648 966.893 408.648C966.257 408.648 965.689 408.781 965.189 409.048C964.695 409.31 964.303 409.673 964.013 410.139C963.729 410.599 963.587 411.125 963.587 411.716V420H961.575ZM986.528 409.841L984.721 410.352C984.607 410.051 984.44 409.759 984.218 409.474C984.002 409.185 983.707 408.946 983.332 408.759C982.957 408.571 982.477 408.477 981.891 408.477C981.09 408.477 980.423 408.662 979.888 409.031C979.36 409.395 979.096 409.858 979.096 410.42C979.096 410.92 979.278 411.315 979.641 411.605C980.005 411.895 980.573 412.136 981.346 412.33L983.289 412.807C984.46 413.091 985.332 413.526 985.906 414.111C986.479 414.69 986.766 415.437 986.766 416.352C986.766 417.102 986.55 417.773 986.119 418.364C985.692 418.955 985.096 419.42 984.329 419.761C983.562 420.102 982.67 420.273 981.653 420.273C980.317 420.273 979.212 419.983 978.337 419.403C977.462 418.824 976.908 417.977 976.675 416.864L978.585 416.386C978.766 417.091 979.11 417.619 979.616 417.972C980.127 418.324 980.795 418.5 981.619 418.5C982.556 418.5 983.3 418.301 983.852 417.903C984.408 417.5 984.687 417.017 984.687 416.455C984.687 416 984.528 415.619 984.21 415.312C983.891 415 983.403 414.767 982.744 414.614L980.562 414.102C979.363 413.818 978.482 413.378 977.92 412.781C977.363 412.179 977.085 411.426 977.085 410.523C977.085 409.784 977.292 409.131 977.707 408.562C978.127 407.994 978.698 407.548 979.42 407.224C980.147 406.901 980.971 406.739 981.891 406.739C983.187 406.739 984.204 407.023 984.942 407.591C985.687 408.159 986.215 408.909 986.528 409.841ZM991.669 415.227L991.635 412.739H992.044L997.771 406.909H1000.26L994.158 413.08H993.987L991.669 415.227ZM989.794 420V402.545H991.805V420H989.794ZM998.112 420L992.999 413.523L994.43 412.125L1000.67 420H998.112ZM1006.7 420.307C1005.87 420.307 1005.12 420.151 1004.44 419.838C1003.77 419.52 1003.23 419.062 1002.83 418.466C1002.43 417.864 1002.24 417.136 1002.24 416.284C1002.24 415.534 1002.38 414.926 1002.68 414.46C1002.97 413.989 1003.37 413.619 1003.86 413.352C1004.36 413.085 1004.9 412.886 1005.5 412.756C1006.1 412.619 1006.71 412.511 1007.31 412.432C1008.11 412.33 1008.75 412.253 1009.25 412.202C1009.75 412.145 1010.11 412.051 1010.34 411.92C1010.57 411.79 1010.69 411.562 1010.69 411.239V411.17C1010.69 410.33 1010.46 409.676 1010 409.21C1009.54 408.744 1008.85 408.511 1007.93 408.511C1006.97 408.511 1006.22 408.722 1005.67 409.142C1005.12 409.562 1004.74 410.011 1004.52 410.489L1002.61 409.807C1002.95 409.011 1003.41 408.392 1003.97 407.949C1004.55 407.5 1005.17 407.187 1005.85 407.011C1006.53 406.83 1007.2 406.739 1007.86 406.739C1008.28 406.739 1008.76 406.79 1009.31 406.892C1009.86 406.989 1010.39 407.19 1010.9 407.497C1011.42 407.804 1011.85 408.267 1012.19 408.886C1012.53 409.506 1012.7 410.335 1012.7 411.375V420H1010.69V418.227H1010.59C1010.45 418.511 1010.22 418.815 1009.91 419.139C1009.59 419.463 1009.16 419.739 1008.64 419.966C1008.11 420.193 1007.46 420.307 1006.7 420.307ZM1007.01 418.5C1007.8 418.5 1008.47 418.344 1009.02 418.031C1009.57 417.719 1009.99 417.315 1010.26 416.821C1010.55 416.327 1010.69 415.807 1010.69 415.261V413.42C1010.6 413.523 1010.42 413.616 1010.13 413.702C1009.84 413.781 1009.51 413.852 1009.14 413.915C1008.77 413.972 1008.41 414.023 1008.06 414.068C1007.71 414.108 1007.43 414.142 1007.21 414.17C1006.69 414.239 1006.2 414.349 1005.75 414.503C1005.3 414.651 1004.93 414.875 1004.66 415.176C1004.38 415.472 1004.25 415.875 1004.25 416.386C1004.25 417.085 1004.5 417.614 1005.02 417.972C1005.54 418.324 1006.21 418.5 1007.01 418.5ZM1016.64 420V402.545H1018.66V408.989H1018.83C1018.97 408.761 1019.18 408.472 1019.44 408.119C1019.71 407.761 1020.09 407.443 1020.58 407.165C1021.08 406.881 1021.76 406.739 1022.61 406.739C1023.71 406.739 1024.68 407.014 1025.53 407.565C1026.37 408.116 1027.02 408.898 1027.49 409.909C1027.97 410.92 1028.2 412.114 1028.2 413.489C1028.2 414.875 1027.97 416.077 1027.49 417.094C1027.02 418.105 1026.37 418.889 1025.53 419.446C1024.7 419.997 1023.74 420.273 1022.64 420.273C1021.8 420.273 1021.13 420.134 1020.62 419.855C1020.12 419.571 1019.73 419.25 1019.46 418.892C1019.18 418.528 1018.97 418.227 1018.83 417.989H1018.59V420H1016.64ZM1018.62 413.455C1018.62 414.443 1018.77 415.315 1019.06 416.071C1019.35 416.821 1019.77 417.409 1020.33 417.835C1020.88 418.256 1021.57 418.466 1022.37 418.466C1023.21 418.466 1023.91 418.244 1024.48 417.801C1025.05 417.352 1025.47 416.75 1025.76 415.994C1026.05 415.233 1026.19 414.386 1026.19 413.455C1026.19 412.534 1026.05 411.705 1025.76 410.966C1025.49 410.222 1025.06 409.634 1024.49 409.202C1023.93 408.764 1023.22 408.545 1022.37 408.545C1021.55 408.545 1020.87 408.753 1020.31 409.168C1019.75 409.577 1019.33 410.151 1019.05 410.889C1018.76 411.622 1018.62 412.477 1018.62 413.455ZM1036.97 406.909V408.614H1030.19V406.909H1036.97ZM1032.16 403.773H1034.18V416.25C1034.18 416.818 1034.26 417.244 1034.42 417.528C1034.59 417.807 1034.81 417.994 1035.07 418.091C1035.34 418.182 1035.62 418.227 1035.91 418.227C1036.14 418.227 1036.32 418.216 1036.46 418.193C1036.6 418.165 1036.72 418.142 1036.8 418.125L1037.21 419.932C1037.07 419.983 1036.88 420.034 1036.64 420.085C1036.39 420.142 1036.09 420.17 1035.71 420.17C1035.14 420.17 1034.59 420.048 1034.04 419.804C1033.5 419.56 1033.05 419.188 1032.69 418.688C1032.34 418.188 1032.16 417.557 1032.16 416.795V403.773ZM1046.75 406.909H1048.76V420.955C1048.76 421.761 1048.62 422.46 1048.34 423.051C1048.07 423.642 1047.65 424.099 1047.1 424.423C1046.55 424.747 1045.85 424.909 1045.01 424.909C1044.94 424.909 1044.87 424.909 1044.8 424.909C1044.74 424.909 1044.67 424.909 1044.6 424.909V423.034C1044.67 423.034 1044.73 423.034 1044.79 423.034C1044.84 423.034 1044.91 423.034 1044.97 423.034C1045.59 423.034 1046.04 422.852 1046.32 422.489C1046.61 422.131 1046.75 421.619 1046.75 420.955V406.909ZM1047.74 404.727C1047.34 404.727 1047.01 404.594 1046.72 404.327C1046.44 404.06 1046.3 403.739 1046.3 403.364C1046.3 402.989 1046.44 402.668 1046.72 402.401C1047.01 402.134 1047.34 402 1047.74 402C1048.13 402 1048.46 402.134 1048.74 402.401C1049.03 402.668 1049.17 402.989 1049.17 403.364C1049.17 403.739 1049.03 404.06 1048.74 404.327C1048.46 404.594 1048.13 404.727 1047.74 404.727ZM1060.69 414.648V406.909H1062.7V420H1060.69V417.784H1060.56C1060.25 418.449 1059.77 419.014 1059.12 419.48C1058.48 419.94 1057.66 420.17 1056.67 420.17C1055.85 420.17 1055.12 419.991 1054.49 419.634C1053.85 419.27 1053.35 418.724 1052.99 417.997C1052.62 417.264 1052.44 416.341 1052.44 415.227V406.909H1054.45V415.091C1054.45 416.045 1054.72 416.807 1055.25 417.375C1055.79 417.943 1056.48 418.227 1057.32 418.227C1057.82 418.227 1058.33 418.099 1058.84 417.844C1059.37 417.588 1059.8 417.196 1060.16 416.668C1060.51 416.139 1060.69 415.466 1060.69 414.648ZM1068.4 402.545V420H1066.39V402.545H1068.4ZM1077.57 420.273C1076.31 420.273 1075.22 419.994 1074.31 419.438C1073.4 418.875 1072.7 418.091 1072.2 417.085C1071.71 416.074 1071.47 414.898 1071.47 413.557C1071.47 412.216 1071.71 411.034 1072.2 410.011C1072.7 408.983 1073.38 408.182 1074.26 407.608C1075.15 407.028 1076.19 406.739 1077.37 406.739C1078.05 406.739 1078.72 406.852 1079.39 407.08C1080.05 407.307 1080.66 407.676 1081.2 408.188C1081.75 408.693 1082.18 409.364 1082.51 410.199C1082.83 411.034 1082.99 412.062 1082.99 413.284V414.136H1072.9V412.398H1080.95C1080.95 411.659 1080.8 411 1080.5 410.42C1080.21 409.841 1079.8 409.384 1079.26 409.048C1078.73 408.713 1078.09 408.545 1077.37 408.545C1076.57 408.545 1075.87 408.744 1075.29 409.142C1074.71 409.534 1074.26 410.045 1073.95 410.676C1073.64 411.307 1073.48 411.983 1073.48 412.705V413.864C1073.48 414.852 1073.65 415.69 1073.99 416.378C1074.34 417.06 1074.82 417.58 1075.43 417.938C1076.05 418.29 1076.76 418.466 1077.57 418.466C1078.1 418.466 1078.58 418.392 1079 418.244C1079.44 418.091 1079.81 417.864 1080.12 417.562C1080.43 417.256 1080.67 416.875 1080.84 416.42L1082.79 416.966C1082.58 417.625 1082.24 418.205 1081.76 418.705C1081.27 419.199 1080.68 419.585 1079.97 419.864C1079.26 420.136 1078.46 420.273 1077.57 420.273ZM1086.05 420V406.909H1088V408.955H1088.17C1088.44 408.256 1088.88 407.713 1089.49 407.327C1090.09 406.935 1090.82 406.739 1091.68 406.739C1092.54 406.739 1093.26 406.935 1093.83 407.327C1094.41 407.713 1094.86 408.256 1095.19 408.955H1095.32C1095.66 408.278 1096.16 407.741 1096.83 407.344C1097.5 406.94 1098.31 406.739 1099.25 406.739C1100.42 406.739 1101.37 407.105 1102.12 407.838C1102.86 408.565 1103.23 409.699 1103.23 411.239V420H1101.22V411.239C1101.22 410.273 1100.96 409.582 1100.43 409.168C1099.9 408.753 1099.28 408.545 1098.56 408.545C1097.64 408.545 1096.93 408.824 1096.42 409.381C1095.92 409.932 1095.67 410.631 1095.67 411.477V420H1093.62V411.034C1093.62 410.29 1093.38 409.69 1092.9 409.236C1092.41 408.776 1091.79 408.545 1091.03 408.545C1090.51 408.545 1090.02 408.685 1089.56 408.963C1089.11 409.241 1088.75 409.628 1088.47 410.122C1088.2 410.611 1088.06 411.176 1088.06 411.818V420H1086.05ZM1110.76 420.307C1109.93 420.307 1109.18 420.151 1108.5 419.838C1107.83 419.52 1107.29 419.062 1106.89 418.466C1106.5 417.864 1106.3 417.136 1106.3 416.284C1106.3 415.534 1106.45 414.926 1106.74 414.46C1107.04 413.989 1107.43 413.619 1107.93 413.352C1108.42 413.085 1108.97 412.886 1109.56 412.756C1110.16 412.619 1110.77 412.511 1111.38 412.432C1112.17 412.33 1112.82 412.253 1113.31 412.202C1113.81 412.145 1114.18 412.051 1114.4 411.92C1114.64 411.79 1114.75 411.562 1114.75 411.239V411.17C1114.75 410.33 1114.52 409.676 1114.06 409.21C1113.61 408.744 1112.92 408.511 1111.99 408.511C1111.03 408.511 1110.28 408.722 1109.73 409.142C1109.19 409.562 1108.8 410.011 1108.58 410.489L1106.67 409.807C1107.01 409.011 1107.47 408.392 1108.04 407.949C1108.61 407.5 1109.24 407.187 1109.91 407.011C1110.59 406.83 1111.26 406.739 1111.92 406.739C1112.34 406.739 1112.83 406.79 1113.37 406.892C1113.92 406.989 1114.45 407.19 1114.97 407.497C1115.48 407.804 1115.91 408.267 1116.25 408.886C1116.59 409.506 1116.76 410.335 1116.76 411.375V420H1114.75V418.227H1114.65C1114.51 418.511 1114.29 418.815 1113.97 419.139C1113.65 419.463 1113.23 419.739 1112.7 419.966C1112.17 420.193 1111.52 420.307 1110.76 420.307ZM1111.07 418.5C1111.87 418.5 1112.54 418.344 1113.08 418.031C1113.63 417.719 1114.05 417.315 1114.33 416.821C1114.61 416.327 1114.75 415.807 1114.75 415.261V413.42C1114.67 413.523 1114.48 413.616 1114.19 413.702C1113.91 413.781 1113.58 413.852 1113.2 413.915C1112.83 413.972 1112.47 414.023 1112.12 414.068C1111.77 414.108 1111.49 414.142 1111.27 414.17C1110.75 414.239 1110.26 414.349 1109.81 414.503C1109.36 414.651 1109 414.875 1108.72 415.176C1108.45 415.472 1108.31 415.875 1108.31 416.386C1108.31 417.085 1108.57 417.614 1109.08 417.972C1109.61 418.324 1110.27 418.5 1111.07 418.5ZM1125.72 425.182C1124.75 425.182 1123.91 425.057 1123.21 424.807C1122.51 424.562 1121.93 424.239 1121.47 423.835C1121.01 423.438 1120.64 423.011 1120.37 422.557L1121.97 421.432C1122.15 421.67 1122.38 421.943 1122.66 422.25C1122.94 422.562 1123.32 422.832 1123.8 423.06C1124.29 423.293 1124.93 423.409 1125.72 423.409C1126.78 423.409 1127.65 423.153 1128.34 422.642C1129.02 422.131 1129.37 421.33 1129.37 420.239V417.58H1129.2C1129.05 417.818 1128.84 418.114 1128.57 418.466C1128.3 418.812 1127.91 419.122 1127.41 419.395C1126.91 419.662 1126.23 419.795 1125.38 419.795C1124.32 419.795 1123.37 419.545 1122.53 419.045C1121.7 418.545 1121.03 417.818 1120.55 416.864C1120.06 415.909 1119.82 414.75 1119.82 413.386C1119.82 412.045 1120.06 410.878 1120.53 409.884C1121 408.884 1121.66 408.111 1122.5 407.565C1123.34 407.014 1124.31 406.739 1125.41 406.739C1126.26 406.739 1126.94 406.881 1127.44 407.165C1127.95 407.443 1128.33 407.761 1128.6 408.119C1128.87 408.472 1129.08 408.761 1129.23 408.989H1129.43V406.909H1131.38V420.375C1131.38 421.5 1131.12 422.415 1130.61 423.119C1130.11 423.83 1129.42 424.349 1128.57 424.679C1127.71 425.014 1126.76 425.182 1125.72 425.182ZM1125.65 417.989C1126.46 417.989 1127.14 417.804 1127.7 417.435C1128.25 417.065 1128.68 416.534 1128.97 415.841C1129.26 415.148 1129.4 414.318 1129.4 413.352C1129.4 412.409 1129.26 411.577 1128.97 410.855C1128.69 410.134 1128.27 409.568 1127.71 409.159C1127.16 408.75 1126.47 408.545 1125.65 408.545C1124.8 408.545 1124.09 408.761 1123.52 409.193C1122.96 409.625 1122.53 410.205 1122.25 410.932C1121.97 411.659 1121.83 412.466 1121.83 413.352C1121.83 414.261 1121.97 415.065 1122.26 415.764C1122.55 416.457 1122.97 417.003 1123.54 417.401C1124.11 417.793 1124.81 417.989 1125.65 417.989ZM1135.06 420V406.909H1137.07V420H1135.06ZM1136.08 404.727C1135.69 404.727 1135.35 404.594 1135.07 404.327C1134.79 404.06 1134.65 403.739 1134.65 403.364C1134.65 402.989 1134.79 402.668 1135.07 402.401C1135.35 402.134 1135.69 402 1136.08 402C1136.47 402 1136.81 402.134 1137.09 402.401C1137.37 402.668 1137.51 402.989 1137.51 403.364C1137.51 403.739 1137.37 404.06 1137.09 404.327C1136.81 404.594 1136.47 404.727 1136.08 404.727Z" fill="#F7F1E2"/>
</svg>
