<svg width="100" height="88" viewBox="0 0 100 88" fill="none" xmlns="http://www.w3.org/2000/svg">
<path d="M99.0001 76.9896C96.7603 76.9896 89.9936 76.7088 82.4201 76.9074C73.3245 77.1458 64.6488 82.0956 56.4255 84.4099C51.084 85.9132 47.3359 86.2819 42.6115 86.7419C30.9656 87.8758 24.3032 84.9749 20.0197 83.8226C16.8216 82.9623 13.581 81.0481 10.6146 79.2143C9.08958 78.2833 7.83489 77.0509 6.97667 75.5636C6.59618 74.8287 6.3274 74.1342 6.0332 72.7026" stroke="#F7F1E2" stroke-width="2" stroke-linecap="round"/>
<path d="M97.0828 58.1972C94.3757 58.1972 87.3188 58.0302 83.3618 57.507C79.9101 57.0506 66.6489 57.0719 55.5864 56.4497C49.4401 56.104 30.1814 54.8634 20.8712 56.5949C20.0508 56.7474 19.8569 57.9353 19.8097 58.6102C19.6041 61.5487 24.7721 62.4325 29.3949 63.1927C31.3041 63.3145 34.1439 63.3771 37.531 63.4397C40.9181 63.5024 44.7665 63.5631 49.7763 63.8097" stroke="#F7F1E2" stroke-width="2" stroke-linecap="round"/>
<path d="M50.9964 63.5825C50.4114 64.3282 47.4646 66.9367 44.2925 68.4395C40.247 70.356 34.4699 70.0765 26.2974 70.3298C15.5846 70.456 8.19481 71.0205 7.29601 72.1539C6.95186 72.7872 6.83504 73.5387 6.65137 74.7011" stroke="#F7F1E2" stroke-width="2" stroke-linecap="round"/>
<path d="M6.87105 16.0748C6.43625 16.2432 4.36462 17.4383 2.72312 19.0224C1.10949 20.5795 1.3223 23.0282 1.05488 25.1863C0.67873 28.2217 2.30166 30.2703 3.92426 32.2228C5.54281 34.1705 8.29475 34.925 10.4061 35.5984C11.7954 36.0415 13.7485 36.0296 15.7816 35.8603C19.1697 35.578 21.5583 31.2868 22.3833 28.3901C23.9173 23.0041 22.0867 20.7128 20.7618 17.3798C20.463 16.6281 20.1513 16.3312 19.8237 16.0655C16.4552 15.3572 10.9944 15.5347 8.95833 16.2663C8.45357 16.465 7.98854 16.6568 6.89469 17.0071" stroke="#F7F1E2" stroke-width="2" stroke-linecap="round"/>
<path d="M44.581 1C42.7975 1 37.5248 1.59033 34.7664 3.2798C32.3272 4.77376 32.9745 9.67766 32.9969 13.363C33.0041 14.5357 33.8391 15.198 35.0822 16.0451C39.4904 19.0489 46.5886 18.992 50.0887 18.5425C50.9797 18.428 51.3912 17.2839 51.827 16.4088C53.8403 12.3657 52.3193 5.32568 50.7742 3.65208C49.1424 2.75538 47.7433 2.35438 46.2784 2.25675C45.3191 2.22355 43.9215 2.22355 42.4814 2.22355" stroke="#F7F1E2" stroke-width="2" stroke-linecap="round"/>
<path d="M37.5024 7.1499C37.5024 7.18493 37.5115 7.6332 37.6969 8.87251C37.8734 9.6816 38.2169 10.8565 38.4304 11.6943C38.644 12.532 38.7171 12.997 38.8722 13.8567" stroke="#F7F1E2" stroke-width="2" stroke-linecap="round"/>
<path d="M38.8721 10.4681C38.8721 10.4369 38.9129 10.1368 39.0857 9.5854C39.4396 9.07616 39.835 8.67938 40.1404 8.35995C40.2789 8.18804 40.3841 7.99619 40.612 7.67578" stroke="#F7F1E2" stroke-width="2" stroke-linecap="round"/>
<path d="M38.7568 10.8774C38.8023 10.8774 39.2219 10.8774 39.9741 10.9843C40.6343 11.3049 41.2892 11.7903 41.8983 12.2661C42.1658 12.4766 42.3488 12.6243 42.6062 12.8454" stroke="#F7F1E2" stroke-width="2" stroke-linecap="round"/>
<path d="M43.7783 9.71571C44.1807 10.4874 45.1118 12.2132 45.3006 12.0512C45.5548 9.49417 45.9398 8.75602 46.2758 8.41917C46.4576 8.28649 46.6622 8.23148 47.0549 8.1748" stroke="#F7F1E2" stroke-width="2" stroke-linecap="round"/>
<path d="M48.0566 12.5166V12.5403" stroke="#F7F1E2" stroke-width="2" stroke-linecap="round"/>
<path d="M7.15576 23.757C7.15576 23.7406 7.17001 24.6791 7.2835 26.6151C7.38275 27.6041 7.56656 28.6066 7.69358 29.2387C7.8206 29.8708 7.88526 30.102 7.95187 30.3403" stroke="#F7F1E2" stroke-width="2" stroke-linecap="round"/>
<path d="M7.9502 26.9601C7.9502 26.9283 8.0206 26.6815 8.24452 26.1871C8.63254 25.6324 9.06179 25.2051 9.41721 24.9255C9.58497 24.7738 9.72714 24.6019 9.87363 24.4248" stroke="#F7F1E2" stroke-width="2" stroke-linecap="round"/>
<path d="M7.93604 26.9185C8.17826 26.9696 9.54446 27.772 10.6878 28.587C10.901 28.7172 11.0982 28.8099 11.3039 28.9086C11.5096 29.0073 11.7178 29.1092 12.2262 29.3791" stroke="#F7F1E2" stroke-width="2" stroke-linecap="round"/>
<path d="M13.522 25.5377C13.5338 25.9917 13.7111 27.3249 14.3107 28.6349C14.3826 28.7921 14.4794 27.7254 14.5438 26.7472C14.7358 26.1354 15.1753 25.7215 15.7586 25.3873C16.0344 25.2506 16.2689 25.1808 16.5105 25.1089" stroke="#F7F1E2" stroke-width="2" stroke-linecap="round"/>
<path d="M17.8147 28.1958H17.79" stroke="#F7F1E2" stroke-width="2" stroke-linecap="round"/>
</svg>
