<svg width="80" height="86" viewBox="0 0 80 86" fill="none" xmlns="http://www.w3.org/2000/svg">
<path d="M14.2692 17.9834C14.158 19.5362 13.2292 23.5598 11.7516 27.0512C11.4347 27.8 11.261 28.227 11.5006 28.4486C12.9426 29.7818 14.8098 30.1011 16.0768 31.8132C18.2266 34.7183 18.099 38.0304 18.171 38.1942C19.6062 41.4603 18.7099 32.8555 19.9383 30.0211C20.5144 28.6919 21.2682 27.9269 21.4791 27.522C22.0546 26.4171 18.6191 26.469 17.094 25.1511C15.9677 23.7401 15.2183 22.3893 14.9817 21.4819C14.8898 20.9631 14.8549 20.3256 14.819 19.6688" stroke="#F7F1E2" stroke-width="2" stroke-linecap="round"/>
<path d="M36.8488 38.6104C36.8327 39.2613 36.4835 41.2299 33.9863 45.6354C33.2976 46.8505 32.5066 47.6953 32.3497 48.2126C31.9202 49.628 34.5542 50.8161 35.5372 53.1669C37.5455 57.9694 37.1143 60.1623 37.1188 59.8809C37.2292 52.9449 37.8114 51.0284 38.5627 49.3337C39.1907 47.9174 36.8753 45.5268 36.206 42.9984C36.1163 42.464 36.0621 41.9717 36.0342 41.4358C36.0063 40.8998 36.0063 40.3352 36.0063 39.7534" stroke="#F7F1E2" stroke-width="2" stroke-linecap="round"/>
<path d="M34.855 65.1894C34.3009 64.9137 30.6853 61.968 27.7588 58.9448C24.9997 56.0945 23.5739 49.8113 23.2239 43.5705C23.0446 40.3754 25.7026 36.8613 30.0625 32.1189C32.8003 29.1408 37.7071 26.7424 42.9288 24.4277C46.8836 22.6745 54.0515 22.453 62.168 22.1402C66.6677 21.9668 68.8049 22.8903 70.3727 23.0512C72.4766 23.2672 64.8362 19.2119 62.2067 18.1818C58.4006 16.6907 50.2137 16.8199 42.5938 16.7671C38.09 17.7328 32.9846 20.1299 27.8219 23.3881C27.0449 23.9822 26.6437 24.3452 26.1037 24.87" stroke="#F7F1E2" stroke-width="2" stroke-linecap="round"/>
<path d="M16.8364 44.6255C16.8548 47.3521 17.2291 54.1132 19.3878 58.5942C23.6119 63.3683 26.4208 65.5346 30.1782 67.3593C31.2464 67.7935 32.2201 68.0951 33.2495 68.3612" stroke="#F7F1E2" stroke-width="2" stroke-linecap="round"/>
<path d="M70.1375 23.4344C69.7288 24.3137 68.6742 26.534 68.2065 27.6906C67.8469 28.58 67.296 29.2732 67.3312 29.6229C67.5076 31.3785 70.5089 28.9848 71.4005 28.4561C71.5905 28.3434 71.7272 28.1668 71.9199 28.151C73.536 28.0183 75.1507 30.0037 75.4152 30.0847C76.5063 30.4189 74.9953 27.2837 74.8238 26.4348C74.7533 26.0859 74.9155 25.8775 75.109 25.7734C76.371 25.0944 78.3093 25.4213 78.8302 25.3197C79.713 25.1476 76.9084 23.872 76.086 23.1857C75.3699 22.588 76.1479 19.9751 76.3781 17.3952C76.4511 16.5774 76.1729 16.7445 75.9319 16.9701C74.5773 18.2379 73.7357 19.8527 73.044 19.931C71.3246 20.1254 69.7619 18.4673 68.7218 17.8309C68.2762 17.5583 67.956 17.458 68.0698 17.9774C68.1835 18.4968 68.7304 19.6568 69.1687 20.4742C69.607 21.2916 69.9203 21.7312 70.5471 22.6218" stroke="#F7F1E2" stroke-width="2" stroke-linecap="round"/>
<path d="M54.0205 62.385C55.7425 65.417 56.621 67.4745 57.3022 70.6973C57.4457 71.3762 57.4241 71.8218 57.4511 71.2635C57.6647 66.8307 58.4497 64.7894 59.2534 63.5767C59.4631 63.2603 59.7645 62.9895 59.7445 62.769C59.627 61.4713 57.3586 60.4331 56.464 58.5416C56.0075 57.5764 56.0972 55.7394 56.036 54.7617C55.9311 58.8194 55.628 60.17 55.0656 61.8461C54.9164 62.2396 54.7839 62.5443 54.6132 62.8582" stroke="#F7F1E2" stroke-width="2" stroke-linecap="round"/>
<path d="M36.1997 82.076C36.3037 82.4335 36.733 83.401 37.1026 83.7066C37.2193 83.8031 37.3324 83.3712 37.1067 83.2443C36.881 83.1173 36.3488 83.2038 36.2257 83.2988C36.0155 83.461 37.7528 83.8073 39.1971 84.0002C38.8822 83.2108 38.3446 82.3576 38.0442 82.0156C37.8615 81.9707 37.6173 82.1869 37.1369 82.5892" stroke="#F7F1E2" stroke-width="2" stroke-linecap="round"/>
<path d="M54.8878 38.2448C54.8878 38.9609 54.7545 40.5849 54.6804 40.9532C54.467 42.0134 56.7875 39.9982 57.1989 39.7855C58.42 39.1543 54.4319 38.4783 53.9833 38.3593C53.6197 38.2628 55.5498 39.6093 56.8004 40.5211C56.9329 39.8646 56.4829 38.84 56.1242 38.2695C55.9889 37.9748 55.9483 37.6697 55.9065 36.7427" stroke="#F7F1E2" stroke-width="2" stroke-linecap="round"/>
<path d="M26.4591 1C26.4442 2.01373 26.2916 4.35849 26.1349 4.72563C25.7492 5.62924 26.9622 2.98302 27.5017 2.51762C27.7639 2.29144 28.0292 2.11709 27.5455 2.02485C27.0618 1.9326 25.828 1.9358 25.3201 2.03214C24.8122 2.12849 25.0677 2.31787 25.3601 2.50052C25.9743 2.85333 26.7656 3.34576 27.6058 3.8949C27.9861 4.12693 28.2728 4.26426 29.1793 4.92505" stroke="#F7F1E2" stroke-width="2" stroke-linecap="round"/>
<path d="M1.9 51.8887C1.8984 52.7419 1.78348 54.8003 1.64624 55.2229C1.32848 56.2012 3.07723 53.4836 3.5821 53.1297C4.48728 52.4953 1.35594 52.8059 1.14005 52.8542C0.38148 53.024 2.91802 54.0822 3.63725 54.5127C2.93417 53.1519 2.53435 52.2625 2.23013 51.6867C2.07049 51.4021 1.9002 51.1326 1.69553 50.6523" stroke="#F7F1E2" stroke-width="2" stroke-linecap="round"/>
<path d="M70.7418 69.701C70.7337 70.7442 70.607 73.1793 70.444 73.6577C70.1013 74.6641 71.2933 71.3167 71.8243 70.4463C72.0501 70.0762 70.2126 70.2788 69.7786 70.391C68.3261 70.7666 72.4774 72.7296 72.6133 72.6812C72.4764 72.3634 71.9218 71.4501 71.5129 70.734C71.1041 70.0178 70.8579 69.5265 70.289 68.5581" stroke="#F7F1E2" stroke-width="2" stroke-linecap="round"/>
</svg>
