<svg width="76" height="86" viewBox="0 0 76 86" fill="none" xmlns="http://www.w3.org/2000/svg">
<path d="M30.0205 21.8364C30.0384 22.3761 30.5245 25.3212 31.2267 27.7643C31.5044 28.7304 32.257 29.4218 33.0598 29.8784C35.404 31.2117 39.5881 29.9408 41.0604 28.9703C42.9153 27.7475 40.6041 25.1016 39.9007 23.4978C39.7224 23.091 39.4808 22.7113 39.1652 22.4454C38.8495 22.1794 38.446 22.0487 37.0211 21.9813C35.5961 21.914 33.162 21.914 30.5455 21.8018" stroke="#F7F1E2" stroke-width="2" stroke-linecap="round"/>
<path d="M36.5981 21.3973C36.5981 20.7344 37.0663 17.9667 38.4895 15.0429C39.7994 12.352 43.3021 8.34154 46.1001 6.16545C49.73 3.34242 53.1155 2.93136 55.4673 1.79559C57.3401 0.891162 59.398 1.22188 60.3548 1.0301C62.1809 0.664083 63.5491 3.76445 65.1293 6.27723C68.0405 10.9064 68.4617 14.7806 68.8902 20.1676C69.5918 28.9877 71.2572 34.6931 71.0839 35.9478C71.0099 36.4836 70.5642 36.7199 70.1345 36.9262C67.3471 38.2643 60.2088 36.0625 55.9597 34.7694C52.7002 33.7774 48.2082 34.1677 46.2434 33.1937C45.1941 32.4693 43.8914 31.6579 42.3164 30.8805C41.4958 30.5127 40.6317 30.1989 39.6543 29.7717" stroke="#F7F1E2" stroke-width="2" stroke-linecap="round"/>
<path d="M32.3309 21.1745C30.2096 18.7604 24.1795 12.2499 20.9336 10.1381C17.8492 8.13138 10.9789 8.58563 6.54891 8.13107C5.58339 8.032 4.36212 7.5662 3.56859 7.58659C2.77506 7.60697 2.46713 8.00239 2.30849 8.43729C1.99632 9.29314 1.77078 11.0082 1.19778 13.9059C0.446549 17.7049 1.90656 22.7352 4.37112 29.1626C9.68134 43.0112 11.6102 43.7322 12.3785 44.3233C15.6796 46.8629 25.0943 39.301 28.3906 37.0434C29.9618 35.4614 31.3581 33.7134 32.4831 31.9914C32.7535 31.583 33.0609 31.1859 33.5569 30.63" stroke="#F7F1E2" stroke-width="2" stroke-linecap="round"/>
<path d="M33.2461 30.4238C33.2461 30.4543 30.535 34.8153 25.9792 42.558C22.7654 48.02 21.8682 53.3001 21.1546 61.1362C20.6826 66.3193 20.8152 74.0115 20.6821 78.5877C20.5491 83.1639 20.3579 84.4062 20.3898 84.8709C20.4618 85.921 24.842 80.3641 27.7067 76.5851C28.2572 75.859 28.4042 74.8086 28.7331 74.5038C29.062 74.1991 29.402 74.5706 29.6632 74.9776C30.9219 76.939 33.1552 80.6261 34.6648 82.7062C35.1729 83.4063 36.1353 83.8483 36.9185 83.8855C39.6982 84.0175 37.8929 74.1318 37.6869 64.7855C37.5024 56.4193 36.4289 49.6481 36.6137 44.0085C37.3475 38.3858 37.9026 34.8755 37.9909 33.688C38.0438 33.1405 38.1133 32.7048 38.185 31.9026" stroke="#F7F1E2" stroke-width="2" stroke-linecap="round"/>
<path d="M37.9678 51.3219C37.9678 51.9121 38.1437 54.059 39.7369 57.4584C40.4694 59.0213 42.198 61.1386 45.712 64.8832C49.2261 68.6278 54.6668 73.8293 57.7924 76.9282C60.9181 80.0271 61.5638 80.8659 61.951 81.0398C65.2011 82.4996 60.3719 71.0904 60.4695 69.9582C60.6534 67.8263 65.0877 72.9824 67.1005 73.9577C68.802 74.7823 71.8078 75.1773 74.4304 75.541C75.2492 75.6545 75.0599 75.1568 74.6431 74.4993C71.7101 69.8732 68.0768 63.1731 65.3366 59.5435C60.1474 52.6701 55.8159 49.2373 52.2152 44.2229C51.3244 42.6689 50.4362 40.5574 49.481 38.015C49.1097 36.9765 48.9685 36.4487 48.7473 35.2695" stroke="#F7F1E2" stroke-width="2" stroke-linecap="round"/>
</svg>
