<svg width="55" height="55" viewBox="0 0 55 55" fill="none" xmlns="http://www.w3.org/2000/svg">
<path d="M39.6409 11.4609C39.6409 11.4656 39.6409 11.4702 39.7052 11.47C39.7695 11.4699 39.8981 11.4647 39.9157 11.4195C39.9333 11.3742 39.8359 11.2889 39.8233 11.4439" stroke="#701010" stroke-width="3" stroke-linecap="round"/>
<path d="M26.5494 17.1161C26.7348 17.1373 27.4341 17.2424 29.0265 17.3107C30.4988 17.3738 31.4339 17.86 32.0636 18.0674C33.154 18.4266 33.6894 18.8198 34.2649 19.2558C34.9526 19.777 35.4197 20.2148 35.9277 20.7767C36.3714 21.2675 36.7153 22.0172 36.9791 22.6239C37.1939 23.1179 37.3943 23.694 37.531 24.3009C37.7334 25.1993 37.8811 26.7966 37.9505 27.5261C38.0541 28.6171 37.7078 30.8301 37.3222 31.8098C37.027 32.56 36.5569 33.0149 36.1659 33.4482C35.7295 33.9318 35.0746 34.4116 34.3449 35.0584C33.7304 35.603 32.5632 36.3303 31.5073 36.9382C30.1806 37.702 28.7905 37.9306 27.8694 38.023C25.2896 38.2817 24.5828 37.8148 23.935 37.4661C23.3566 37.1548 22.8588 36.8178 22.2844 36.3995C21.3279 35.7032 20.8252 35.1857 20.3242 34.795C19.8966 34.4614 19.5375 33.881 18.784 32.8755C18.3098 32.2428 18.196 31.5727 17.9699 30.9601C17.753 30.3727 17.5367 29.7318 17.3422 29.1983C17.2245 28.8755 17.2335 27.7803 17.3163 26.0994C17.4414 23.5616 18.5556 22.2596 19.7325 20.7209C20.3929 19.8575 21.3063 19.4849 21.946 19.129C22.6736 18.7241 23.1985 18.3245 24.107 17.8275C24.6885 17.5094 25.5042 17.2881 26.2964 17.1496C26.4693 17.1356 26.6329 17.1356 26.8345 17.1303C27.036 17.125 27.2706 17.1144 27.5124 17.1035" stroke="#701010" stroke-width="3" stroke-linecap="round"/>
<path d="M46.5568 2.96036C46.6896 3.03824 47.2248 3.49126 47.7536 4.0523C48.192 4.51754 48.5759 4.99115 49.0325 5.40142C49.4943 5.81631 49.8749 6.21749 50.448 6.85131C50.8922 7.34259 51.2029 7.971 51.4681 8.49895C51.756 9.07222 52.0768 9.65224 52.3147 10.2448C52.5331 10.7886 52.6603 11.4117 52.8609 12.3899C53.0691 13.4051 53.1092 13.934 53.173 14.6436C53.2347 15.3307 53.2314 15.9495 53.3135 16.5614C53.427 17.4079 53.4096 20.4341 53.3549 22.5715C53.3227 23.8289 53.1834 26.254 53.2123 27.6845C53.2247 28.2973 53.3427 28.8804 53.3469 31.4154C53.3484 32.3828 53.4149 33.0254 53.4697 33.7493C53.5787 35.191 53.3652 35.7275 53.2778 36.3926C53.1874 37.0804 53.1722 38.4754 53.2297 40.1054C53.3624 43.8652 53.0986 44.4361 52.8301 45.0092C52.5565 45.593 51.8173 46.6684 51.2842 47.3602C50.9479 47.7966 50.5924 48.2677 50.1366 48.8195C49.7627 49.2721 49.1536 49.4132 48.7854 49.7869C48.3697 50.209 47.7283 50.6016 47.2632 51.0133C46.7474 51.4699 45.9544 51.783 45.4359 52.0849C44.8057 52.452 43.8392 52.6078 43.1364 52.7682C42.3571 52.946 41.3969 53.2129 40.8272 53.3194C40.5603 53.3692 40.2854 53.3952 40.0074 53.4223C39.7283 53.4495 37.5711 53.493 34.4543 53.4999C33.2303 53.5026 31.7731 53.4517 29.652 53.4451C28.2207 53.4407 27.4807 53.2924 26.896 53.1961C26.199 53.0814 25.3389 53.1713 20.9155 53.2008C16.8375 53.228 16.1359 53.271 15.2493 53.3821C13.8923 53.5522 12.966 53.2028 12.0668 52.9283C11.4453 52.7385 10.8558 52.6976 10.1844 52.5582C9.5577 52.4281 8.75715 51.9211 8.08497 51.5598C7.33769 51.158 6.939 50.7387 6.51047 50.3734C5.95319 49.8983 5.27624 49.3138 4.9044 48.8556C4.5554 48.4256 4.25971 47.9906 3.87437 47.5402C3.51582 47.121 3.17919 46.7026 2.96031 46.158C2.74009 45.6101 2.60271 44.9101 2.488 44.3039C2.38753 43.773 2.32552 43.2089 2.18241 42.6397C2.04157 42.0796 1.88334 41.4947 1.73844 40.7181C1.54312 39.6712 1.60223 38.0983 1.56295 37.5506C1.43357 35.7469 1.53621 32.5204 1.58309 31.5283C1.62859 30.5654 1.73474 29.8981 1.79711 28.8938C1.89769 27.2743 1.69886 26.7417 1.62331 26.2086C1.57634 25.8772 1.53087 24.2823 1.53621 21.8183C1.53987 20.1283 1.55013 18.7764 1.52525 17.501C1.47732 15.0434 1.52353 12.8692 1.70181 12.3513C1.90174 11.7706 2.13584 11.2004 2.38147 10.6277C2.6621 9.97345 2.98066 9.24509 3.30371 8.50188C3.73441 7.51099 4.25828 6.95587 4.55493 6.48186C4.8287 6.04442 5.25329 5.67739 5.81845 5.18296C6.29832 4.76314 6.94 4.19219 8.2538 3.41611C8.93332 3.0147 9.60955 2.7626 10.3476 2.56527C10.9469 2.40502 11.6312 2.28387 12.2114 2.18384C12.8389 2.07567 14.2436 1.95495 15.2847 1.85322C15.9568 1.78754 17.9084 1.62193 19.3361 1.56207C20.0238 1.53323 23.3489 1.46626 25.2716 1.52067C25.8325 1.53654 26.5738 1.70082 27.4539 1.73933C28.1228 1.7686 28.5663 1.83762 30.2493 1.87688C31.7764 1.9125 34.6716 1.89065 36.8183 1.90211C40.2761 1.92058 41.7985 1.98045 42.2133 2.01226C43.2471 2.09154 44.4456 2.2508 45.5557 2.52091C45.8638 2.63597 46.4008 2.95736 47.0694 3.41042C47.3272 3.59889 47.4196 3.70322 47.5555 4.03362" stroke="#701010" stroke-width="3" stroke-linecap="round"/>
</svg>
