<svg width="421" height="72" viewBox="0 0 421 72" fill="none" xmlns="http://www.w3.org/2000/svg">
<path d="M35.085 13.272C35.0301 13.272 33.9534 13.272 32.0412 13.4558C30.4296 13.6108 29.0107 15.1268 27.649 16.6088C27.0358 17.2763 26.9997 18.0701 27.194 18.6918C27.3883 19.3135 27.9212 19.8154 28.621 20.1729C34.6604 23.2586 45.0304 20.1583 46.0211 19.1825C46.4988 18.7121 46.4395 17.9394 46.1397 17.4272C43.6497 15.9978 41.2535 15.1937 39.7997 14.8083C39.028 14.6772 38.1874 14.6772 36.3891 14.5016" stroke="#701010" stroke-width="1.83951" stroke-linecap="round"/>
<path d="M32.5987 12.462C28.8422 9.63718 18.5399 2.34436 14.7111 1.12193C12.9252 0.551712 11.0775 1.29936 9.6758 1.92985C6.88543 3.18499 5.47336 7.56741 2.5129 11.3484C0.471464 13.9556 0.851703 16.3494 1.1824 17.6388C1.88561 20.3807 6.7432 20.1641 13.4517 20.1054C15.3888 19.9464 17.2552 19.6285 19.697 19.4013C22.1389 19.1741 25.0997 19.0473 28.1501 18.9166" stroke="#701010" stroke-width="1.83951" stroke-linecap="round"/>
<path d="M44.9951 14.1166C45.0043 13.2727 45.2358 10.9892 45.8604 9.69919C47.7576 5.7811 56.6032 8.72882 60.8507 10.932C64.9648 13.0661 71.1995 12.358 73.2004 14.182C74.2325 15.1228 73.927 17.1063 73.6636 18.7415C73.2309 21.4283 68.3621 21.8176 60.587 22.8324C56.6078 22.9758 53.9061 22.7927 52.0238 22.2968C50.9178 21.9838 49.5056 21.5465 47.2184 20.717" stroke="#701010" stroke-width="1.83951" stroke-linecap="round"/>
<path d="M32.5988 21.5073C30.745 21.5073 25.4528 21.9815 22.6718 23.8053C19.6214 28.4747 16.253 42.0237 12.16 53.0216C9.9966 56.5323 6.2042 62.2663 2.29688 68.174" stroke="#701010" stroke-width="1.83951" stroke-linecap="round"/>
<path d="M38.1079 22.8799C38.22 22.8799 39.2807 23.2968 41.1874 24.5985C44.2437 29.5038 47.9132 39.3597 51.8767 46.4278C53.4935 48.1846 56.1791 50.8768 60.1456 54.4485" stroke="#701010" stroke-width="1.83951" stroke-linecap="round"/>
<path d="M60.1456 53.5629C59.0739 54.125 56.243 56.2967 54.4808 58.1281C51.8435 60.8692 48.4341 50.0644 46.1969 44.6336C41.7321 31.8299 40.7116 28.8262 39.6306 26.0843C39.1116 24.8941 38.6526 24.1127 38.1079 22.8799" stroke="#701010" stroke-width="1.83951" stroke-linecap="round"/>
<path d="M32.5988 22.8799C31.0455 24.5146 27.5956 29.1679 26.3231 36.5288C23.8174 51.0234 21.8907 58.2241 18.847 63.3821C16.886 66.7051 12.3117 68.6744 8.8995 70.5984C8.10247 70.8701 7.28512 70.9785 6.17994 70.8876C5.07477 70.7967 3.70655 70.5032 2.29688 70.2009" stroke="#701010" stroke-width="1.83951" stroke-linecap="round"/>
<path d="M47.0322 15.9113C47.2527 15.482 48.6447 13.7867 49.8636 12.8822C50.3602 12.5137 52.2399 12.416 55.8571 12.6371C63.7159 14.4985 66.008 14.5793 68.7839 14.6251C69.8986 14.6703 70.4166 14.7599 71.7236 15.0975" stroke="#701010" stroke-width="1.83951" stroke-linecap="round"/>
<path d="M69.7478 20.8994C69.2038 20.8865 66.627 20.5625 63.8344 20.3038C59.1035 19.85 55.3901 19.7996 51.4701 20.4951C50.7282 20.689 50.4647 20.8082 49.7095 21.4004" stroke="#701010" stroke-width="1.83951" stroke-linecap="round"/>
<path d="M28.0131 14.0016C27.5995 13.9863 26.2693 13.727 16.5181 7.86918C14.0685 6.39769 13.3619 6.1834 12.7794 6.03369C10.4534 6.1517 6.07871 8.10306 4.41742 9.49004C4.08995 9.7565 3.67554 10.0889 2.90918 10.6808" stroke="#701010" stroke-width="1.83951" stroke-linecap="round"/>
<path d="M3.25586 18.5957C5.18744 18.5904 10.6388 18.1752 14.7349 17.2349C24.5488 15.1359 26.6345 14.6116 27.3312 14.5371C27.7466 14.5117 28.2873 14.5117 28.8445 14.5117" stroke="#701010" stroke-width="1.83951" stroke-linecap="round"/>
<path d="M208.085 13.272C208.03 13.272 206.953 13.272 205.041 13.4558C203.43 13.6108 202.011 15.1268 200.649 16.6088C200.036 17.2763 200 18.0701 200.194 18.6918C200.388 19.3135 200.921 19.8154 201.621 20.1729C207.66 23.2586 218.03 20.1583 219.021 19.1825C219.499 18.7121 219.44 17.9394 219.14 17.4272C216.65 15.9978 214.253 15.1937 212.8 14.8083C212.028 14.6772 211.187 14.6772 209.389 14.5016" stroke="#701010" stroke-width="1.83951" stroke-linecap="round"/>
<path d="M205.599 12.462C201.842 9.63718 191.54 2.34436 187.711 1.12193C185.925 0.551712 184.077 1.29936 182.676 1.92985C179.885 3.18499 178.473 7.56741 175.513 11.3484C173.471 13.9556 173.852 16.3494 174.182 17.6388C174.886 20.3807 179.743 20.1641 186.452 20.1054C188.389 19.9464 190.255 19.6285 192.697 19.4013C195.139 19.1741 198.1 19.0473 201.15 18.9166" stroke="#701010" stroke-width="1.83951" stroke-linecap="round"/>
<path d="M217.995 14.1166C218.004 13.2727 218.236 10.9892 218.86 9.69919C220.758 5.7811 229.603 8.72882 233.851 10.932C237.965 13.0661 244.199 12.358 246.2 14.182C247.232 15.1228 246.927 17.1063 246.664 18.7415C246.231 21.4283 241.362 21.8176 233.587 22.8324C229.608 22.9758 226.906 22.7927 225.024 22.2968C223.918 21.9838 222.506 21.5465 220.218 20.717" stroke="#701010" stroke-width="1.83951" stroke-linecap="round"/>
<path d="M205.599 21.5073C203.745 21.5073 198.453 21.9815 195.672 23.8053C192.621 28.4747 189.253 42.0237 185.16 53.0216C182.997 56.5323 179.204 62.2663 175.297 68.174" stroke="#701010" stroke-width="1.83951" stroke-linecap="round"/>
<path d="M211.108 22.8799C211.22 22.8799 212.281 23.2968 214.187 24.5985C217.244 29.5038 220.913 39.3597 224.877 46.4278C226.493 48.1846 229.179 50.8768 233.146 54.4485" stroke="#701010" stroke-width="1.83951" stroke-linecap="round"/>
<path d="M233.146 53.5629C232.074 54.125 229.243 56.2967 227.481 58.1281C224.844 60.8692 221.434 50.0644 219.197 44.6336C214.732 31.8299 213.712 28.8262 212.631 26.0843C212.112 24.8941 211.653 24.1127 211.108 22.8799" stroke="#701010" stroke-width="1.83951" stroke-linecap="round"/>
<path d="M205.599 22.8799C204.046 24.5146 200.596 29.1679 199.323 36.5288C196.817 51.0234 194.891 58.2241 191.847 63.3821C189.886 66.7051 185.312 68.6744 181.899 70.5984C181.102 70.8701 180.285 70.9785 179.18 70.8876C178.075 70.7967 176.707 70.5032 175.297 70.2009" stroke="#701010" stroke-width="1.83951" stroke-linecap="round"/>
<path d="M220.032 15.9113C220.253 15.482 221.645 13.7867 222.864 12.8822C223.36 12.5137 225.24 12.416 228.857 12.6371C236.716 14.4985 239.008 14.5793 241.784 14.6251C242.899 14.6703 243.417 14.7599 244.724 15.0975" stroke="#701010" stroke-width="1.83951" stroke-linecap="round"/>
<path d="M242.748 20.8994C242.204 20.8865 239.627 20.5625 236.834 20.3038C232.103 19.85 228.39 19.7996 224.47 20.4951C223.728 20.689 223.465 20.8082 222.709 21.4004" stroke="#701010" stroke-width="1.83951" stroke-linecap="round"/>
<path d="M201.013 14.0016C200.599 13.9863 199.269 13.727 189.518 7.86918C187.069 6.39769 186.362 6.1834 185.779 6.03369C183.453 6.1517 179.079 8.10306 177.417 9.49004C177.09 9.7565 176.676 10.0889 175.909 10.6808" stroke="#701010" stroke-width="1.83951" stroke-linecap="round"/>
<path d="M176.256 18.5957C178.187 18.5904 183.639 18.1752 187.735 17.2349C197.549 15.1359 199.634 14.6116 200.331 14.5371C200.747 14.5117 201.287 14.5117 201.844 14.5117" stroke="#701010" stroke-width="1.83951" stroke-linecap="round"/>
<path d="M381.085 13.272C381.03 13.272 379.953 13.272 378.041 13.4558C376.43 13.6108 375.011 15.1268 373.649 16.6088C373.036 17.2763 373 18.0701 373.194 18.6918C373.388 19.3135 373.921 19.8154 374.621 20.1729C380.66 23.2586 391.03 20.1583 392.021 19.1825C392.499 18.7121 392.44 17.9394 392.14 17.4272C389.65 15.9978 387.253 15.1937 385.8 14.8083C385.028 14.6772 384.187 14.6772 382.389 14.5016" stroke="#701010" stroke-width="1.83951" stroke-linecap="round"/>
<path d="M378.599 12.462C374.842 9.63718 364.54 2.34436 360.711 1.12193C358.925 0.551712 357.077 1.29936 355.676 1.92985C352.885 3.18499 351.473 7.56741 348.513 11.3484C346.471 13.9556 346.852 16.3494 347.182 17.6388C347.886 20.3807 352.743 20.1641 359.452 20.1054C361.389 19.9464 363.255 19.6285 365.697 19.4013C368.139 19.1741 371.1 19.0473 374.15 18.9166" stroke="#701010" stroke-width="1.83951" stroke-linecap="round"/>
<path d="M390.995 14.1166C391.004 13.2727 391.236 10.9892 391.86 9.69919C393.758 5.7811 402.603 8.72882 406.851 10.932C410.965 13.0661 417.199 12.358 419.2 14.182C420.232 15.1228 419.927 17.1063 419.664 18.7415C419.231 21.4283 414.362 21.8176 406.587 22.8324C402.608 22.9758 399.906 22.7927 398.024 22.2968C396.918 21.9838 395.506 21.5465 393.218 20.717" stroke="#701010" stroke-width="1.83951" stroke-linecap="round"/>
<path d="M378.599 21.5073C376.745 21.5073 371.453 21.9815 368.672 23.8053C365.621 28.4747 362.253 42.0237 358.16 53.0216C355.997 56.5323 352.204 62.2663 348.297 68.174" stroke="#701010" stroke-width="1.83951" stroke-linecap="round"/>
<path d="M384.108 22.8799C384.22 22.8799 385.281 23.2968 387.187 24.5985C390.244 29.5038 393.913 39.3597 397.877 46.4278C399.493 48.1846 402.179 50.8768 406.146 54.4485" stroke="#701010" stroke-width="1.83951" stroke-linecap="round"/>
<path d="M406.146 53.5629C405.074 54.125 402.243 56.2967 400.481 58.1281C397.844 60.8692 394.434 50.0644 392.197 44.6336C387.732 31.8299 386.712 28.8262 385.631 26.0843C385.112 24.8941 384.653 24.1127 384.108 22.8799" stroke="#701010" stroke-width="1.83951" stroke-linecap="round"/>
<path d="M378.599 22.8799C377.046 24.5146 373.596 29.1679 372.323 36.5288C369.817 51.0234 367.891 58.2241 364.847 63.3821C362.886 66.7051 358.312 68.6744 354.899 70.5984C354.102 70.8701 353.285 70.9785 352.18 70.8876C351.075 70.7967 349.707 70.5032 348.297 70.2009" stroke="#701010" stroke-width="1.83951" stroke-linecap="round"/>
<path d="M393.032 15.9113C393.253 15.482 394.645 13.7867 395.864 12.8822C396.36 12.5137 398.24 12.416 401.857 12.6371C409.716 14.4985 412.008 14.5793 414.784 14.6251C415.899 14.6703 416.417 14.7599 417.724 15.0975" stroke="#701010" stroke-width="1.83951" stroke-linecap="round"/>
<path d="M415.748 20.8994C415.204 20.8865 412.627 20.5625 409.834 20.3038C405.103 19.85 401.39 19.7996 397.47 20.4951C396.728 20.689 396.465 20.8082 395.709 21.4004" stroke="#701010" stroke-width="1.83951" stroke-linecap="round"/>
<path d="M374.013 14.0016C373.599 13.9863 372.269 13.727 362.518 7.86918C360.069 6.39769 359.362 6.1834 358.779 6.03369C356.453 6.1517 352.079 8.10306 350.417 9.49004C350.09 9.7565 349.676 10.0889 348.909 10.6808" stroke="#701010" stroke-width="1.83951" stroke-linecap="round"/>
<path d="M349.256 18.5957C351.187 18.5904 356.639 18.1752 360.735 17.2349C370.549 15.1359 372.634 14.6116 373.331 14.5371C373.747 14.5117 374.287 14.5117 374.844 14.5117" stroke="#701010" stroke-width="1.83951" stroke-linecap="round"/>
</svg>
