<svg width="260" height="199" viewBox="0 0 260 199" fill="none" xmlns="http://www.w3.org/2000/svg">
<path d="M259 177.558C250.499 177.562 231.627 178.064 214.79 183.799C197.681 189.627 183.339 194.558 171.341 196.201C140.202 200.465 133.836 196.219 126.076 193.071C118.802 190.12 106.716 181.731 102.126 175.884C101.604 175.219 102.768 174.227 104.428 173.809C108.696 172.734 112.619 173.222 121.673 172.966C144.762 172.314 161.243 172.632 163.178 172.08C165.133 171.521 166.761 170.165 167.815 168.027C168.392 166.856 168.24 165.185 167.815 164.208C162.795 152.683 132.976 161.365 128.966 160.092C126.992 159.465 124.336 158.524 121.786 156.97C120.713 156.315 120.724 155.089 121.082 154.29C122.679 150.731 129.194 150.115 134.016 148.612C141.856 146.169 155.243 147.253 178.44 147.168C188.474 147.131 196.758 150.068 204.295 152.401C209.568 153.578 214.645 154.183 232.886 154.361C238.335 154.342 243.178 154.255 247.901 154.166" stroke="#F7F1E2" stroke-width="2" stroke-linecap="round"/>
<path d="M47 33.0603C47.0275 33.9959 47.7724 39.1017 48.8486 43.3372C49.2742 45.012 50.4275 46.2107 51.6579 47.0023C55.2505 49.3136 61.6629 47.1103 63.9193 45.4278C66.762 43.308 63.2199 38.7209 62.142 35.9405C61.8687 35.2354 61.4984 34.5771 61.0147 34.116C60.531 33.6549 59.9125 33.4283 57.7288 33.3116C55.545 33.1948 51.8145 33.1948 47.8046 33.0002" stroke="#F7F1E2" stroke-width="2" stroke-linecap="round"/>
<path d="M57 31.8686C57 30.8653 57.7192 26.6768 59.9057 22.252C61.9182 18.1795 67.2992 12.1101 71.5979 8.81686C77.1746 4.5445 82.3756 3.92241 85.9888 2.20355C88.866 0.834791 92.0276 1.33529 93.4975 1.04506C96.3029 0.491131 98.4049 5.18319 100.833 8.98602C105.305 15.9918 105.952 21.8549 106.61 30.0076C107.688 43.3558 110.247 51.9903 109.981 53.8891C109.867 54.7001 109.182 55.0576 108.522 55.3698C104.24 57.395 93.2732 54.0627 86.7452 52.1058C81.7376 50.6046 74.8365 51.1953 71.8181 49.7212C70.206 48.6249 68.2047 47.397 65.785 46.2204C64.5243 45.6637 63.1968 45.1889 61.6951 44.5424" stroke="#F7F1E2" stroke-width="2" stroke-linecap="round"/>
<path d="M49.117 32.7921C45.8592 29.0984 36.5984 19.1366 31.6134 15.9053C26.8764 12.8348 16.3254 13.5299 9.52185 12.8344C8.03904 12.6828 6.16344 11.97 4.94476 12.0012C3.72608 12.0324 3.25317 12.6375 3.00955 13.3029C2.53012 14.6124 2.18375 17.2366 1.30375 21.6704C0.150026 27.4834 2.39226 35.1802 6.17726 45.0148C14.3325 66.2047 17.2948 67.3078 18.4748 68.2123C23.5445 72.0982 38.0033 60.5277 43.0657 57.0733C45.4787 54.6527 47.623 51.9781 49.3508 49.3432C49.766 48.7183 50.2381 48.1107 51 47.26" stroke="#F7F1E2" stroke-width="2" stroke-linecap="round"/>
<path d="M50.7951 48.0002C50.7951 48.0466 47.0436 54.6787 40.7394 66.4538C36.2922 74.7604 35.0507 82.7903 34.0633 94.7074C33.4101 102.59 33.5936 114.288 33.4095 121.248C33.2253 128.207 32.9608 130.096 33.0049 130.803C33.1045 132.4 39.1657 123.949 43.1299 118.202C43.8916 117.098 44.095 115.5 44.5501 115.037C45.0052 114.573 45.4757 115.138 45.8371 115.757C47.579 118.74 50.6693 124.348 52.7582 127.511C53.4613 128.576 54.7931 129.248 55.8768 129.304C59.7233 129.505 57.2251 114.471 56.9401 100.257C56.6849 87.534 55.1993 77.2364 55.455 68.6598C56.4705 60.1088 57.2386 54.7704 57.3607 52.9644C57.434 52.1317 57.5302 51.4691 57.6293 50.2492" stroke="#F7F1E2" stroke-width="2" stroke-linecap="round"/>
<path d="M58 78.8313C58 79.7443 58.2756 83.0653 60.7708 88.3237C61.918 90.7413 64.6253 94.0164 70.1291 99.8089C75.6328 105.601 84.1539 113.647 89.0493 118.441C93.9447 123.235 94.956 124.532 95.5625 124.801C100.653 127.059 93.0892 109.411 93.2422 107.659C93.5301 104.361 100.475 112.337 103.628 113.846C106.292 115.121 111 115.733 115.108 116.295C116.39 116.471 116.094 115.701 115.441 114.684C110.847 107.528 105.157 97.1636 100.865 91.549C92.7377 80.9167 85.9536 75.6066 80.3143 67.8499C78.9192 65.4462 77.528 62.1799 76.032 58.2472C75.4504 56.6407 75.2293 55.8243 74.8829 54.0002" stroke="#F7F1E2" stroke-width="2" stroke-linecap="round"/>
</svg>
