<svg width="1280" height="195" viewBox="0 0 1280 195" fill="none" xmlns="http://www.w3.org/2000/svg">
<path d="M49.5 94.1697C57.0197 107.561 60.8561 116.649 63.8308 130.883C64.4575 133.881 64.3632 135.849 64.4807 133.383C65.4136 113.805 68.8415 104.789 72.3514 99.4329C73.2669 98.0357 74.583 96.8394 74.4959 95.8659C73.9829 90.134 64.0768 85.5486 60.1704 77.1946C58.177 72.9314 58.5687 64.8182 58.3014 60.5C57.8435 78.4214 56.5198 84.3867 54.0639 91.7896C53.4122 93.5274 52.8334 94.8731 52.0883 96.2597" stroke="#F7F1E2" stroke-width="3" stroke-linecap="round"/>
<path d="M117.5 94.1697C125.02 107.561 128.856 116.649 131.831 130.883C132.457 133.881 132.363 135.849 132.481 133.383C133.414 113.805 136.842 104.789 140.351 99.4329C141.267 98.0357 142.583 96.8394 142.496 95.8659C141.983 90.134 132.077 85.5486 128.17 77.1946C126.177 72.9314 126.569 64.8182 126.301 60.5C125.843 78.4214 124.52 84.3867 122.064 91.7896C121.412 93.5274 120.833 94.8731 120.088 96.2597" stroke="#F7F1E2" stroke-width="3" stroke-linecap="round"/>
<path d="M185.5 94.1697C193.02 107.561 196.856 116.649 199.831 130.883C200.457 133.881 200.363 135.849 200.481 133.383C201.414 113.805 204.842 104.789 208.351 99.4329C209.267 98.0357 210.583 96.8394 210.496 95.8659C209.983 90.134 200.077 85.5486 196.17 77.1946C194.177 72.9314 194.569 64.8182 194.301 60.5C193.843 78.4214 192.52 84.3867 190.064 91.7896C189.412 93.5274 188.833 94.8731 188.088 96.2597" stroke="#F7F1E2" stroke-width="3" stroke-linecap="round"/>
<path d="M253.5 94.1697C261.02 107.561 264.856 116.649 267.831 130.883C268.457 133.881 268.363 135.849 268.481 133.383C269.414 113.805 272.842 104.789 276.351 99.4329C277.267 98.0357 278.583 96.8394 278.496 95.8659C277.983 90.134 268.077 85.5486 264.17 77.1946C262.177 72.9314 262.569 64.8182 262.301 60.5C261.843 78.4214 260.52 84.3867 258.064 91.7896C257.412 93.5274 256.833 94.8731 256.088 96.2597" stroke="#F7F1E2" stroke-width="3" stroke-linecap="round"/>
<path d="M321.5 94.1697C329.02 107.561 332.856 116.649 335.831 130.883C336.457 133.881 336.363 135.849 336.481 133.383C337.414 113.805 340.842 104.789 344.351 99.4329C345.267 98.0357 346.583 96.8394 346.496 95.8659C345.983 90.134 336.077 85.5486 332.17 77.1946C330.177 72.9314 330.569 64.8182 330.301 60.5C329.843 78.4214 328.52 84.3867 326.064 91.7896C325.412 93.5274 324.833 94.8731 324.088 96.2597" stroke="#F7F1E2" stroke-width="3" stroke-linecap="round"/>
<path d="M389.5 94.1697C397.02 107.561 400.856 116.649 403.831 130.883C404.457 133.881 404.363 135.849 404.481 133.383C405.414 113.805 408.842 104.789 412.351 99.4329C413.267 98.0357 414.583 96.8394 414.496 95.8659C413.983 90.134 404.077 85.5486 400.17 77.1946C398.177 72.9314 398.569 64.8182 398.301 60.5C397.843 78.4214 396.52 84.3867 394.064 91.7896C393.412 93.5274 392.833 94.8731 392.088 96.2597" stroke="#F7F1E2" stroke-width="3" stroke-linecap="round"/>
<path d="M457.5 94.1697C465.02 107.561 468.856 116.649 471.831 130.883C472.457 133.881 472.363 135.849 472.481 133.383C473.414 113.805 476.842 104.789 480.351 99.4329C481.267 98.0357 482.583 96.8394 482.496 95.8659C481.983 90.134 472.077 85.5486 468.17 77.1946C466.177 72.9314 466.569 64.8182 466.301 60.5C465.843 78.4214 464.52 84.3867 462.064 91.7896C461.412 93.5274 460.833 94.8731 460.088 96.2597" stroke="#F7F1E2" stroke-width="3" stroke-linecap="round"/>
<path d="M525.5 94.1697C533.02 107.561 536.856 116.649 539.831 130.883C540.457 133.881 540.363 135.849 540.481 133.383C541.414 113.805 544.842 104.789 548.351 99.4329C549.267 98.0357 550.583 96.8394 550.496 95.8659C549.983 90.134 540.077 85.5486 536.17 77.1946C534.177 72.9314 534.569 64.8182 534.301 60.5C533.843 78.4214 532.52 84.3867 530.064 91.7896C529.412 93.5274 528.833 94.8731 528.088 96.2597" stroke="#F7F1E2" stroke-width="3" stroke-linecap="round"/>
<path d="M593.5 94.1697C601.02 107.561 604.856 116.649 607.831 130.883C608.457 133.881 608.363 135.849 608.481 133.383C609.414 113.805 612.842 104.789 616.351 99.4329C617.267 98.0357 618.583 96.8394 618.496 95.8659C617.983 90.134 608.077 85.5486 604.17 77.1946C602.177 72.9314 602.569 64.8182 602.301 60.5C601.843 78.4214 600.52 84.3867 598.064 91.7896C597.412 93.5274 596.833 94.8731 596.088 96.2597" stroke="#F7F1E2" stroke-width="3" stroke-linecap="round"/>
<path d="M661.5 94.1697C669.02 107.561 672.856 116.649 675.831 130.883C676.457 133.881 676.363 135.849 676.481 133.383C677.414 113.805 680.842 104.789 684.351 99.4329C685.267 98.0357 686.583 96.8394 686.496 95.8659C685.983 90.134 676.077 85.5486 672.17 77.1946C670.177 72.9314 670.569 64.8182 670.301 60.5C669.843 78.4214 668.52 84.3867 666.064 91.7896C665.412 93.5274 664.833 94.8731 664.088 96.2597" stroke="#F7F1E2" stroke-width="3" stroke-linecap="round"/>
<path d="M729.5 94.1697C737.02 107.561 740.856 116.649 743.831 130.883C744.457 133.881 744.363 135.849 744.481 133.383C745.414 113.805 748.842 104.789 752.351 99.4329C753.267 98.0357 754.583 96.8394 754.496 95.8659C753.983 90.134 744.077 85.5486 740.17 77.1946C738.177 72.9314 738.569 64.8182 738.301 60.5C737.843 78.4214 736.52 84.3867 734.064 91.7896C733.412 93.5274 732.833 94.8731 732.088 96.2597" stroke="#F7F1E2" stroke-width="3" stroke-linecap="round"/>
<path d="M797.5 94.1697C805.02 107.561 808.856 116.649 811.831 130.883C812.457 133.881 812.363 135.849 812.481 133.383C813.414 113.805 816.842 104.789 820.351 99.4329C821.267 98.0357 822.583 96.8394 822.496 95.8659C821.983 90.134 812.077 85.5486 808.17 77.1946C806.177 72.9314 806.569 64.8182 806.301 60.5C805.843 78.4214 804.52 84.3867 802.064 91.7896C801.412 93.5274 800.833 94.8731 800.088 96.2597" stroke="#F7F1E2" stroke-width="3" stroke-linecap="round"/>
<path d="M865.5 94.1697C873.02 107.561 876.856 116.649 879.831 130.883C880.457 133.881 880.363 135.849 880.481 133.383C881.414 113.805 884.842 104.789 888.351 99.4329C889.267 98.0357 890.583 96.8394 890.496 95.8659C889.983 90.134 880.077 85.5486 876.17 77.1946C874.177 72.9314 874.569 64.8182 874.301 60.5C873.843 78.4214 872.52 84.3867 870.064 91.7896C869.412 93.5274 868.833 94.8731 868.088 96.2597" stroke="#F7F1E2" stroke-width="3" stroke-linecap="round"/>
<path d="M933.5 94.1697C941.02 107.561 944.856 116.649 947.831 130.883C948.457 133.881 948.363 135.849 948.481 133.383C949.414 113.805 952.842 104.789 956.351 99.4329C957.267 98.0357 958.583 96.8394 958.496 95.8659C957.983 90.134 948.077 85.5486 944.17 77.1946C942.177 72.9314 942.569 64.8182 942.301 60.5C941.843 78.4214 940.52 84.3867 938.064 91.7896C937.412 93.5274 936.833 94.8731 936.088 96.2597" stroke="#F7F1E2" stroke-width="3" stroke-linecap="round"/>
<path d="M1001.5 94.1697C1009.02 107.561 1012.86 116.649 1015.83 130.883C1016.46 133.881 1016.36 135.849 1016.48 133.383C1017.41 113.805 1020.84 104.789 1024.35 99.4329C1025.27 98.0357 1026.58 96.8394 1026.5 95.8659C1025.98 90.134 1016.08 85.5486 1012.17 77.1946C1010.18 72.9314 1010.57 64.8182 1010.3 60.5C1009.84 78.4214 1008.52 84.3867 1006.06 91.7896C1005.41 93.5274 1004.83 94.8731 1004.09 96.2597" stroke="#F7F1E2" stroke-width="3" stroke-linecap="round"/>
<path d="M1069.5 94.1697C1077.02 107.561 1080.86 116.649 1083.83 130.883C1084.46 133.881 1084.36 135.849 1084.48 133.383C1085.41 113.805 1088.84 104.789 1092.35 99.4329C1093.27 98.0357 1094.58 96.8394 1094.5 95.8659C1093.98 90.134 1084.08 85.5486 1080.17 77.1946C1078.18 72.9314 1078.57 64.8182 1078.3 60.5C1077.84 78.4214 1076.52 84.3867 1074.06 91.7896C1073.41 93.5274 1072.83 94.8731 1072.09 96.2597" stroke="#F7F1E2" stroke-width="3" stroke-linecap="round"/>
<path d="M1137.5 94.1697C1145.02 107.561 1148.86 116.649 1151.83 130.883C1152.46 133.881 1152.36 135.849 1152.48 133.383C1153.41 113.805 1156.84 104.789 1160.35 99.4329C1161.27 98.0357 1162.58 96.8394 1162.5 95.8659C1161.98 90.134 1152.08 85.5486 1148.17 77.1946C1146.18 72.9314 1146.57 64.8182 1146.3 60.5C1145.84 78.4214 1144.52 84.3867 1142.06 91.7896C1141.41 93.5274 1140.83 94.8731 1140.09 96.2597" stroke="#F7F1E2" stroke-width="3" stroke-linecap="round"/>
<path d="M1205.5 94.1697C1213.02 107.561 1216.86 116.649 1219.83 130.883C1220.46 133.881 1220.36 135.849 1220.48 133.383C1221.41 113.805 1224.84 104.789 1228.35 99.4329C1229.27 98.0357 1230.58 96.8394 1230.5 95.8659C1229.98 90.134 1220.08 85.5486 1216.17 77.1946C1214.18 72.9314 1214.57 64.8182 1214.3 60.5C1213.84 78.4214 1212.52 84.3867 1210.06 91.7896C1209.41 93.5274 1208.83 94.8731 1208.09 96.2597" stroke="#F7F1E2" stroke-width="3" stroke-linecap="round"/>
</svg>
