<svg width="421" height="72" viewBox="0 0 421 72" fill="none" xmlns="http://www.w3.org/2000/svg">
<path d="M35.085 13.2722C35.0301 13.2722 33.9534 13.2722 32.0412 13.4561C30.4296 13.611 29.0107 15.1271 27.649 16.6091C27.0358 17.2765 26.9997 18.0703 27.194 18.6921C27.3883 19.3138 27.9212 19.8156 28.621 20.1732C34.6604 23.2588 45.0304 20.1585 46.0211 19.1828C46.4988 18.7123 46.4395 17.9397 46.1397 17.4275C43.6497 15.9981 41.2535 15.1939 39.7997 14.8085C39.028 14.6775 38.1874 14.6775 36.3891 14.5018" stroke="#F7F1E2" stroke-width="1.83951" stroke-linecap="round"/>
<path d="M32.5987 12.4623C28.8422 9.63743 18.5399 2.3446 14.7111 1.12218C12.9252 0.551956 11.0775 1.2996 9.6758 1.9301C6.88543 3.18523 5.47336 7.56765 2.5129 11.3486C0.471464 13.9559 0.851703 16.3497 1.1824 17.6391C1.88561 20.3809 6.7432 20.1643 13.4517 20.1056C15.3888 19.9467 17.2552 19.6287 19.697 19.4015C22.1389 19.1743 25.0997 19.0475 28.1501 18.9169" stroke="#F7F1E2" stroke-width="1.83951" stroke-linecap="round"/>
<path d="M44.9951 14.1168C45.0043 13.273 45.2358 10.9895 45.8604 9.69944C47.7576 5.78134 56.6032 8.72907 60.8507 10.9323C64.9648 13.0663 71.1995 12.3582 73.2004 14.1822C74.2325 15.123 73.927 17.1066 73.6636 18.7418C73.2309 21.4286 68.3621 21.8179 60.587 22.8327C56.6078 22.976 53.9061 22.793 52.0238 22.297C50.9178 21.9841 49.5056 21.5468 47.2184 20.7173" stroke="#F7F1E2" stroke-width="1.83951" stroke-linecap="round"/>
<path d="M32.5988 21.5073C30.745 21.5073 25.4528 21.9815 22.6718 23.8053C19.6214 28.4747 16.253 42.0237 12.16 53.0216C9.9966 56.5323 6.2042 62.2663 2.29688 68.174" stroke="#F7F1E2" stroke-width="1.83951" stroke-linecap="round"/>
<path d="M38.1079 22.8801C38.22 22.8801 39.2807 23.2971 41.1874 24.5988C44.2437 29.504 47.9132 39.3599 51.8767 46.4281C53.4935 48.1848 56.1791 50.8771 60.1456 54.4487" stroke="#F7F1E2" stroke-width="1.83951" stroke-linecap="round"/>
<path d="M60.1456 53.5632C59.0739 54.1252 56.243 56.2969 54.4808 58.1284C51.8435 60.8694 48.4341 50.0646 46.1969 44.6339C41.7321 31.8301 40.7116 28.8264 39.6306 26.0845C39.1116 24.8944 38.6526 24.113 38.1079 22.8801" stroke="#F7F1E2" stroke-width="1.83951" stroke-linecap="round"/>
<path d="M32.5988 22.8801C31.0455 24.5149 27.5956 29.1681 26.3231 36.529C23.8174 51.0237 21.8907 58.2244 18.847 63.3824C16.886 66.7054 12.3117 68.6747 8.8995 70.5987C8.10247 70.8703 7.28512 70.9787 6.17994 70.8878C5.07477 70.7969 3.70655 70.5035 2.29688 70.2011" stroke="#F7F1E2" stroke-width="1.83951" stroke-linecap="round"/>
<path d="M47.0322 15.9116C47.2527 15.4823 48.6447 13.787 49.8636 12.8825C50.3602 12.5139 52.2399 12.4163 55.8571 12.6373C63.7159 14.4988 66.008 14.5795 68.7839 14.6254C69.8986 14.6706 70.4166 14.7602 71.7236 15.0978" stroke="#F7F1E2" stroke-width="1.83951" stroke-linecap="round"/>
<path d="M69.7478 20.8994C69.2038 20.8865 66.627 20.5625 63.8344 20.3038C59.1035 19.85 55.3901 19.7996 51.4701 20.4951C50.7282 20.689 50.4647 20.8082 49.7095 21.4004" stroke="#F7F1E2" stroke-width="1.83951" stroke-linecap="round"/>
<path d="M28.0131 14.0016C27.5995 13.9863 26.2693 13.727 16.5181 7.86918C14.0685 6.39769 13.3619 6.1834 12.7794 6.03369C10.4534 6.1517 6.07871 8.10306 4.41742 9.49004C4.08995 9.7565 3.67554 10.0889 2.90918 10.6808" stroke="#F7F1E2" stroke-width="1.83951" stroke-linecap="round"/>
<path d="M3.25586 18.5961C5.18744 18.5909 10.6388 18.1757 14.7349 17.2354C24.5488 15.1364 26.6345 14.6121 27.3312 14.5375C27.7466 14.5122 28.2873 14.5122 28.8445 14.5122" stroke="#F7F1E2" stroke-width="1.83951" stroke-linecap="round"/>
<path d="M208.085 13.2722C208.03 13.2722 206.953 13.2722 205.041 13.4561C203.43 13.611 202.011 15.1271 200.649 16.6091C200.036 17.2765 200 18.0703 200.194 18.6921C200.388 19.3138 200.921 19.8156 201.621 20.1732C207.66 23.2588 218.03 20.1585 219.021 19.1828C219.499 18.7123 219.44 17.9397 219.14 17.4275C216.65 15.9981 214.253 15.1939 212.8 14.8085C212.028 14.6775 211.187 14.6775 209.389 14.5018" stroke="#F7F1E2" stroke-width="1.83951" stroke-linecap="round"/>
<path d="M205.599 12.4623C201.842 9.63743 191.54 2.3446 187.711 1.12218C185.925 0.551956 184.077 1.2996 182.676 1.9301C179.885 3.18523 178.473 7.56765 175.513 11.3486C173.471 13.9559 173.852 16.3497 174.182 17.6391C174.886 20.3809 179.743 20.1643 186.452 20.1056C188.389 19.9467 190.255 19.6287 192.697 19.4015C195.139 19.1743 198.1 19.0475 201.15 18.9169" stroke="#F7F1E2" stroke-width="1.83951" stroke-linecap="round"/>
<path d="M217.995 14.1168C218.004 13.273 218.236 10.9895 218.86 9.69944C220.758 5.78134 229.603 8.72907 233.851 10.9323C237.965 13.0663 244.199 12.3582 246.2 14.1822C247.232 15.123 246.927 17.1066 246.664 18.7418C246.231 21.4286 241.362 21.8179 233.587 22.8327C229.608 22.976 226.906 22.793 225.024 22.297C223.918 21.9841 222.506 21.5468 220.218 20.7173" stroke="#F7F1E2" stroke-width="1.83951" stroke-linecap="round"/>
<path d="M205.599 21.5073C203.745 21.5073 198.453 21.9815 195.672 23.8053C192.621 28.4747 189.253 42.0237 185.16 53.0216C182.997 56.5323 179.204 62.2663 175.297 68.174" stroke="#F7F1E2" stroke-width="1.83951" stroke-linecap="round"/>
<path d="M211.108 22.8801C211.22 22.8801 212.281 23.2971 214.187 24.5988C217.244 29.504 220.913 39.3599 224.877 46.4281C226.493 48.1848 229.179 50.8771 233.146 54.4487" stroke="#F7F1E2" stroke-width="1.83951" stroke-linecap="round"/>
<path d="M233.146 53.5632C232.074 54.1252 229.243 56.2969 227.481 58.1284C224.844 60.8694 221.434 50.0646 219.197 44.6339C214.732 31.8301 213.712 28.8264 212.631 26.0845C212.112 24.8944 211.653 24.113 211.108 22.8801" stroke="#F7F1E2" stroke-width="1.83951" stroke-linecap="round"/>
<path d="M205.599 22.8801C204.046 24.5149 200.596 29.1681 199.323 36.529C196.817 51.0237 194.891 58.2244 191.847 63.3824C189.886 66.7054 185.312 68.6747 181.899 70.5987C181.102 70.8703 180.285 70.9787 179.18 70.8878C178.075 70.7969 176.707 70.5035 175.297 70.2011" stroke="#F7F1E2" stroke-width="1.83951" stroke-linecap="round"/>
<path d="M220.032 15.9116C220.253 15.4823 221.645 13.787 222.864 12.8825C223.36 12.5139 225.24 12.4163 228.857 12.6373C236.716 14.4988 239.008 14.5795 241.784 14.6254C242.899 14.6706 243.417 14.7602 244.724 15.0978" stroke="#F7F1E2" stroke-width="1.83951" stroke-linecap="round"/>
<path d="M242.748 20.8994C242.204 20.8865 239.627 20.5625 236.834 20.3038C232.103 19.85 228.39 19.7996 224.47 20.4951C223.728 20.689 223.465 20.8082 222.709 21.4004" stroke="#F7F1E2" stroke-width="1.83951" stroke-linecap="round"/>
<path d="M201.013 14.0016C200.599 13.9863 199.269 13.727 189.518 7.86918C187.069 6.39769 186.362 6.1834 185.779 6.03369C183.453 6.1517 179.079 8.10306 177.417 9.49004C177.09 9.7565 176.676 10.0889 175.909 10.6808" stroke="#F7F1E2" stroke-width="1.83951" stroke-linecap="round"/>
<path d="M176.256 18.5961C178.187 18.5909 183.639 18.1757 187.735 17.2354C197.549 15.1364 199.634 14.6121 200.331 14.5375C200.747 14.5122 201.287 14.5122 201.844 14.5122" stroke="#F7F1E2" stroke-width="1.83951" stroke-linecap="round"/>
<path d="M381.085 13.2722C381.03 13.2722 379.953 13.2722 378.041 13.4561C376.43 13.611 375.011 15.1271 373.649 16.6091C373.036 17.2765 373 18.0703 373.194 18.6921C373.388 19.3138 373.921 19.8156 374.621 20.1732C380.66 23.2588 391.03 20.1585 392.021 19.1828C392.499 18.7123 392.44 17.9397 392.14 17.4275C389.65 15.9981 387.253 15.1939 385.8 14.8085C385.028 14.6775 384.187 14.6775 382.389 14.5018" stroke="#F7F1E2" stroke-width="1.83951" stroke-linecap="round"/>
<path d="M378.599 12.4623C374.842 9.63743 364.54 2.3446 360.711 1.12218C358.925 0.551956 357.077 1.2996 355.676 1.9301C352.885 3.18523 351.473 7.56765 348.513 11.3486C346.471 13.9559 346.852 16.3497 347.182 17.6391C347.886 20.3809 352.743 20.1643 359.452 20.1056C361.389 19.9467 363.255 19.6287 365.697 19.4015C368.139 19.1743 371.1 19.0475 374.15 18.9169" stroke="#F7F1E2" stroke-width="1.83951" stroke-linecap="round"/>
<path d="M390.995 14.1168C391.004 13.273 391.236 10.9895 391.86 9.69944C393.758 5.78134 402.603 8.72907 406.851 10.9323C410.965 13.0663 417.199 12.3582 419.2 14.1822C420.232 15.123 419.927 17.1066 419.664 18.7418C419.231 21.4286 414.362 21.8179 406.587 22.8327C402.608 22.976 399.906 22.793 398.024 22.297C396.918 21.9841 395.506 21.5468 393.218 20.7173" stroke="#F7F1E2" stroke-width="1.83951" stroke-linecap="round"/>
<path d="M378.599 21.5073C376.745 21.5073 371.453 21.9815 368.672 23.8053C365.621 28.4747 362.253 42.0237 358.16 53.0216C355.997 56.5323 352.204 62.2663 348.297 68.174" stroke="#F7F1E2" stroke-width="1.83951" stroke-linecap="round"/>
<path d="M384.108 22.8801C384.22 22.8801 385.281 23.2971 387.187 24.5988C390.244 29.504 393.913 39.3599 397.877 46.4281C399.493 48.1848 402.179 50.8771 406.146 54.4487" stroke="#F7F1E2" stroke-width="1.83951" stroke-linecap="round"/>
<path d="M406.146 53.5632C405.074 54.1252 402.243 56.2969 400.481 58.1284C397.844 60.8694 394.434 50.0646 392.197 44.6339C387.732 31.8301 386.712 28.8264 385.631 26.0845C385.112 24.8944 384.653 24.113 384.108 22.8801" stroke="#F7F1E2" stroke-width="1.83951" stroke-linecap="round"/>
<path d="M378.599 22.8801C377.046 24.5149 373.596 29.1681 372.323 36.529C369.817 51.0237 367.891 58.2244 364.847 63.3824C362.886 66.7054 358.312 68.6747 354.899 70.5987C354.102 70.8703 353.285 70.9787 352.18 70.8878C351.075 70.7969 349.707 70.5035 348.297 70.2011" stroke="#F7F1E2" stroke-width="1.83951" stroke-linecap="round"/>
<path d="M393.032 15.9116C393.253 15.4823 394.645 13.787 395.864 12.8825C396.36 12.5139 398.24 12.4163 401.857 12.6373C409.716 14.4988 412.008 14.5795 414.784 14.6254C415.899 14.6706 416.417 14.7602 417.724 15.0978" stroke="#F7F1E2" stroke-width="1.83951" stroke-linecap="round"/>
<path d="M415.748 20.8994C415.204 20.8865 412.627 20.5625 409.834 20.3038C405.103 19.85 401.39 19.7996 397.47 20.4951C396.728 20.689 396.465 20.8082 395.709 21.4004" stroke="#F7F1E2" stroke-width="1.83951" stroke-linecap="round"/>
<path d="M374.013 14.0016C373.599 13.9863 372.269 13.727 362.518 7.86918C360.069 6.39769 359.362 6.1834 358.779 6.03369C356.453 6.1517 352.079 8.10306 350.417 9.49004C350.09 9.7565 349.676 10.0889 348.909 10.6808" stroke="#F7F1E2" stroke-width="1.83951" stroke-linecap="round"/>
<path d="M349.256 18.5961C351.187 18.5909 356.639 18.1757 360.735 17.2354C370.549 15.1364 372.634 14.6121 373.331 14.5375C373.747 14.5122 374.287 14.5122 374.844 14.5122" stroke="#F7F1E2" stroke-width="1.83951" stroke-linecap="round"/>
</svg>
