<svg width="48" height="58" viewBox="0 0 48 58" fill="none" xmlns="http://www.w3.org/2000/svg">
<path d="M34.0986 1.57014C34.0986 2.56204 34.1866 4.77263 34.4508 5.46635C34.726 6.18917 35.093 7.01726 35.3855 7.78712C35.6673 8.52894 35.9661 9.07577 36.3881 9.79401C36.9362 10.7269 37.4857 11.1707 37.9095 11.6901C38.5577 12.4845 39.6239 13.0928 40.727 13.7616C41.3692 14.1508 42.3683 14.3126 43.2362 14.5066C43.9998 14.6772 44.6323 14.7638 45.2448 14.8089C45.4631 14.825 45.7734 14.8193 45.9369 14.9709C46.9028 15.8663 46.3243 19.0563 46.3642 20.2693C46.3853 20.9122 46.4447 22.9158 46.1166 23.9925C45.717 25.3042 43.483 23.7985 41.6563 23.4351C39.4078 22.9878 38.5536 22.4473 37.4331 22.0033C36.6252 21.6831 36.0963 21.4799 35.6062 21.2017C35.3807 21.0737 35.1756 20.8835 34.96 20.7091C34.8566 20.6255 34.7629 20.5556 34.7097 20.9753C34.5421 22.2974 34.6254 24.5105 34.6057 26.5107C34.5931 27.7897 34.521 28.4169 34.4723 28.9376C34.4443 29.2377 34.4418 30.7769 34.4511 32.9227C34.4603 35.062 34.4069 37.9151 34.3372 38.6895C34.2691 39.446 34.2554 41.6502 34.1623 42.902C34.1204 43.4644 33.8303 44.1266 33.5942 44.7717C33.3187 45.5244 33.0602 46.2333 32.8168 46.9249C32.6357 47.4396 32.2308 48.093 31.7504 48.6767C31.3084 49.2139 30.1396 50.4576 29.1814 51.493C28.64 52.078 28.1391 52.4123 27.5913 52.8052C27.0957 53.1606 26.472 53.6655 25.7796 54.2532C25.1757 54.7658 24.3533 55.0006 22.955 55.5032C22.0407 55.8319 21.4766 55.9724 19.3502 56.3254C16.9375 56.726 15.8926 56.3361 14.8997 56.1587C14.1704 56.0284 13.3388 55.7688 12.5948 55.6076C11.9038 55.4578 11.4089 55.1772 10.9316 54.9216C10.2389 54.5505 9.51557 54.2142 8.99832 53.9599C8.42488 53.678 7.79913 53.3901 7.35175 53.139C6.93906 52.9073 6.49426 52.2197 5.99892 51.5563C5.43456 50.8004 5.08362 50.3158 4.75058 49.883C4.34747 49.3592 3.97106 48.8008 3.68093 48.2659C3.42381 47.7919 3.25481 47.1141 3.05663 46.4694C2.8507 45.7995 2.65133 45.3253 2.43501 44.7148C2.18005 43.9952 2.06985 43.2687 1.91031 42.7588C1.72929 42.1802 1.70293 41.6312 1.65476 41.0889C1.60458 40.5241 1.55174 38.9367 1.50576 37.7403C1.46755 36.7459 1.62427 36.2326 1.82934 35.6138C2.10365 34.7859 2.28121 34.0242 2.45434 33.3856C2.5992 32.8513 2.78462 32.3823 3.04758 31.8185C3.29371 31.2908 3.83561 30.3892 4.18871 29.7428C4.4618 29.2428 4.83289 28.898 5.17032 28.4309C5.49865 27.9765 5.81815 27.473 6.16281 27.0753C6.56983 26.6056 7.33748 26.1642 8.19276 25.4794C9.41952 24.4972 10.2132 24.437 11.0369 24.0829C11.774 23.766 12.1889 23.4633 12.8101 23.1814C13.989 22.6464 15.0518 22.3476 15.9765 22.1487C16.6082 22.0128 17.118 22.0128 17.6231 21.9492C18.1991 21.8766 18.7384 21.8418 19.7688 21.9144C20.6095 21.9735 20.1647 24.1003 20.2042 26.0557C20.2723 29.4342 20.1535 30.0404 19.95 30.6161C19.5956 31.6192 18.2038 30.882 17.5061 31.072C16.4297 31.3652 15.6326 31.6485 14.6582 32.2137C14.005 32.5925 13.4255 32.9391 12.9345 33.3814C12.2033 34.0402 12.1226 34.8416 11.7911 35.6907C11.4589 36.5417 11.1805 36.984 10.9819 37.4849C10.7938 37.9592 10.7399 38.5025 10.6447 39.0319C10.5547 39.5322 10.5468 41.104 10.6379 42.1912C10.6971 42.8982 11.1431 43.4341 11.5501 43.8744C11.9277 44.2829 12.2971 44.622 12.6272 45.0355C12.9501 45.4399 13.518 45.6506 14.0201 45.9081C14.7136 46.2639 15.3868 46.366 16.0372 46.3991C17.1147 46.454 18.2601 46.477 18.9952 46.3428C19.5998 46.2325 20.311 45.8864 20.9005 45.7684C21.3916 45.6701 21.8261 45.3223 22.2498 44.9469C23.0062 44.2768 23.498 43.5763 23.8246 43.1249C24.1303 42.7025 24.3815 42.2282 24.6399 41.7187C24.8814 41.2426 24.8679 40.5793 24.9129 40.0111C24.9548 39.4828 25.1216 38.9638 25.1268 35.8176C25.1281 34.9976 25.0769 33.3066 25.0823 30.8901C25.0846 29.863 25.1222 29.5712 25.1506 28.8282C25.2866 25.2659 25.1052 23.3936 25.0418 22.8348C24.9797 22.2877 24.9458 20.4259 24.903 18.7659C24.8597 17.086 24.8921 15.8003 24.9118 14.8517C24.9558 12.7212 24.9595 11.1409 24.9986 10.6703C25.0559 9.98152 25.0717 7.77879 25.0889 4.98742C25.0978 3.54836 25.1589 2.80075 25.2819 2.06633C25.4824 0.86896 27.8742 1.95351 28.6597 1.88248C29.5651 1.80059 31.3553 1.7125 32.5409 1.64306C33.108 1.57298 33.6007 1.50916 34.0216 1.51922C34.2046 1.52974 34.3255 1.55127 34.5153 1.61884" stroke="#701010" stroke-width="3" stroke-linecap="round"/>
</svg>
